<svg width="70" height="70" viewBox="0 0 70 70" fill="none" xmlns="http://www.w3.org/2000/svg">
<path d="M20.7143 17.1429C20.7143 15.2485 21.4668 13.4316 22.8064 12.0921C24.1459 10.7525 25.9627 10 27.8571 10H42.1429C44.0373 10 45.8541 10.7525 47.1936 12.0921C48.5332 13.4316 49.2857 15.2485 49.2857 17.1429V24.5893C48.2393 24.9565 47.3332 25.6403 46.6932 26.5459C46.0532 27.4515 45.7111 28.5339 45.7143 29.6429V17.1429C45.7143 16.1957 45.338 15.2872 44.6682 14.6175C43.9985 13.9477 43.0901 13.5714 42.1429 13.5714H27.8571C26.9099 13.5714 26.0015 13.9477 25.3318 14.6175C24.662 15.2872 24.2857 16.1957 24.2857 17.1429V29.6214C24.2845 28.5162 23.9403 27.4385 23.3006 26.5372C22.6609 25.6358 21.7572 24.9552 20.7143 24.5893V17.1429ZM45.7143 43.9286V52.8571C45.7143 53.8043 45.338 54.7128 44.6682 55.3825C43.9985 56.0523 43.0901 56.4286 42.1429 56.4286H27.8571C26.9099 56.4286 26.0015 56.0523 25.3318 55.3825C24.662 54.7128 24.2857 53.8043 24.2857 52.8571V43.95C24.2845 45.0553 23.9403 46.1329 23.3006 47.0342C22.6609 47.9356 21.7572 48.6162 20.7143 48.9821V52.8571C20.7143 54.7515 21.4668 56.5684 22.8064 57.9079C24.1459 59.2475 25.9627 60 27.8571 60H42.1429C44.0373 60 45.8541 59.2475 47.1936 57.9079C48.5332 56.5684 49.2857 54.7515 49.2857 52.8571V48.9821C48.2393 48.615 47.3332 47.9311 46.6932 47.0255C46.0532 46.1199 45.7111 45.0375 45.7143 43.9286ZM10.525 35.5214L17.6679 28.3786C18.0032 28.0437 18.4578 27.8558 18.9316 27.8561C19.4055 27.8565 19.8598 28.045 20.1946 28.3804C20.5295 28.7157 20.7174 29.1703 20.7171 29.6441C20.7167 30.118 20.5282 30.5723 20.1929 30.9071L16.0964 35H26.0714C26.545 35 26.9992 35.1881 27.3341 35.523C27.669 35.8579 27.8571 36.3121 27.8571 36.7857C27.8571 37.2593 27.669 37.7135 27.3341 38.0484C26.9992 38.3833 26.545 38.5714 26.0714 38.5714H16.0964L20.1929 42.6643C20.5282 42.9996 20.7165 43.4544 20.7165 43.9286C20.7165 44.4028 20.5282 44.8576 20.1929 45.1929C19.8575 45.5282 19.4028 45.7165 18.9286 45.7165C18.4544 45.7165 17.9996 45.5282 17.6643 45.1929L10.5214 38.05C10.1894 37.7171 10.002 37.2666 10 36.7964V36.775C10.0029 36.3095 10.1874 35.8636 10.5143 35.5321L10.525 35.5214ZM52.3357 45.1929L59.4786 38.05L59.4857 38.0393C59.8126 37.7079 59.9971 37.2619 60 36.7964V36.775C59.9971 36.306 59.8098 35.857 59.4786 35.525L52.3357 28.3821C52.0009 28.0468 51.5466 27.8583 51.0727 27.8579C50.5988 27.8576 50.1442 28.0455 49.8089 28.3804C49.4736 28.7152 49.2851 29.1695 49.2847 29.6434C49.2844 30.1172 49.4723 30.5718 49.8071 30.9071L53.9036 35H43.9286C43.455 35 43.0008 35.1881 42.6659 35.523C42.331 35.8579 42.1429 36.3121 42.1429 36.7857C42.1429 37.2593 42.331 37.7135 42.6659 38.0484C43.0008 38.3833 43.455 38.5714 43.9286 38.5714H53.9036L49.8071 42.6643C49.4718 42.9996 49.2835 43.4544 49.2835 43.9286C49.2835 44.4028 49.4718 44.8576 49.8071 45.1929C50.1425 45.5282 50.5972 45.7165 51.0714 45.7165C51.5456 45.7165 52.0004 45.5282 52.3357 45.1929Z" fill="white"/>
</svg>
