<svg width="180" height="170" viewBox="0 0 180 170" fill="none" xmlns="http://www.w3.org/2000/svg">
<path d="M173.346 156.635C174.672 156.635 175.835 156.893 176.836 157.41C177.848 157.927 178.626 158.666 179.168 159.627C179.723 160.576 180 161.682 180 162.944C180 164.205 179.723 165.311 179.168 166.26C178.626 167.198 177.848 167.925 176.836 168.442C175.835 168.958 174.672 169.217 173.346 169.217H168.934V156.635H173.346ZM173.256 167.072C174.581 167.072 175.606 166.711 176.329 165.99C177.053 165.269 177.414 164.254 177.414 162.944C177.414 161.634 177.053 160.612 176.329 159.879C175.606 159.134 174.581 158.762 173.256 158.762H171.465V167.072H173.256Z" fill="white"/>
<path d="M167.087 156.635V158.672H163.724V169.217H161.192V158.672H157.829V156.635H167.087Z" fill="white"/>
<path d="M152.73 167.216H156.889V169.217H150.199V156.635H152.73V167.216Z" fill="white"/>
<path d="M144.043 156.635V158.672H140.68V169.217H138.149V158.672H134.785V156.635H144.043Z" fill="white"/>
<path d="M132.953 169.217H130.421L124.689 160.582V169.217H122.158V156.617H124.689L130.421 165.269V156.617H132.953V169.217Z" fill="white"/>
<path d="M115.066 158.672V161.826H119.315V163.827H115.066V167.162H119.857V169.217H112.534V156.617H119.857V158.672H115.066Z" fill="white"/>
<path d="M110.032 156.635V169.217H107.5V161.033L104.119 169.217H102.202L98.8028 161.033V169.217H96.2713V156.635H99.1463L103.161 165.99L107.175 156.635H110.032Z" fill="white"/>
<path d="M93.7697 169.217H91.2383L85.5063 160.582V169.217H82.9749V156.617H85.5063L91.2383 165.269V156.617H93.7697V169.217Z" fill="white"/>
<path d="M80.4738 156.635V169.217H77.9423V156.635H80.4738Z" fill="white"/>
<path d="M72.7381 166.819H67.7113L66.8796 169.217H64.2215L68.7601 156.617H71.7074L76.2459 169.217H73.5698L72.7381 166.819ZM72.0509 164.8L70.2247 159.537L68.3984 164.8H72.0509Z" fill="white"/>
<path d="M63.152 156.635V158.672H59.7888V169.217H57.2574V158.672H53.8941V156.635H63.152Z" fill="white"/>
<path d="M49.489 169.217L46.7044 164.314H45.511V169.217H42.9795V156.635H47.717C48.6934 156.635 49.5251 156.809 50.2123 157.157C50.8994 157.494 51.4117 157.957 51.7492 158.545C52.0988 159.122 52.2736 159.771 52.2736 160.492C52.2736 161.321 52.0325 162.072 51.5503 162.745C51.0681 163.406 50.3509 163.863 49.3986 164.115L52.4182 169.217H49.489ZM45.511 162.421H47.6266C48.3137 162.421 48.826 162.259 49.1635 161.934C49.501 161.598 49.6698 161.135 49.6698 160.546C49.6698 159.969 49.501 159.525 49.1635 159.212C48.826 158.888 48.3137 158.726 47.6266 158.726H45.511V162.421Z" fill="white"/>
<path d="M35.8874 158.672V161.826H40.1366V163.827H35.8874V167.162H40.6791V169.217H33.3559V156.617H40.6791V158.672H35.8874Z" fill="white"/>
<path d="M31.5089 156.635V158.672H28.1457V169.217H25.6143V158.672H22.251V156.635H31.5089Z" fill="white"/>
<path d="M20.4184 169.217H17.887L12.1551 160.582V169.217H9.6236V156.617H12.1551L17.887 165.269V156.617H20.4184V169.217Z" fill="white"/>
<path d="M2.53145 158.672V161.826H6.78067V163.827H2.53145V167.162H7.32312V169.217H0V156.617H7.32312V158.672H2.53145Z" fill="white"/>
<path d="M133.506 126.157C134.179 124.989 135.131 124.084 136.36 123.441C137.589 122.77 139.038 122.434 140.707 122.434C142.668 122.434 144.439 122.945 146.019 123.967C147.629 124.989 148.888 126.449 149.795 128.347C150.732 130.244 151.2 132.463 151.2 135.004C151.2 137.544 150.732 139.777 149.795 141.704C148.888 143.602 147.629 145.062 146.019 146.084C144.439 147.106 142.668 147.617 140.707 147.617C139.038 147.617 137.589 147.295 136.36 146.653C135.131 145.982 134.179 145.062 133.506 143.894V147.31H124.901V114.901H133.506V126.157ZM142.463 135.004C142.463 133.398 142.024 132.157 141.146 131.281C140.297 130.376 139.243 129.923 137.985 129.923C136.726 129.923 135.658 130.376 134.78 131.281C133.931 132.186 133.506 133.427 133.506 135.004C133.506 136.609 133.931 137.865 134.78 138.77C135.658 139.675 136.726 140.128 137.985 140.128C139.243 140.128 140.297 139.675 141.146 138.77C142.024 137.836 142.463 136.58 142.463 135.004Z" fill="white"/>
<path d="M115.608 120.463C114.086 120.463 112.857 120.055 111.92 119.237C111.013 118.39 110.559 117.339 110.559 116.084C110.559 114.799 111.013 113.733 111.92 112.887C112.857 112.04 114.086 111.617 115.608 111.617C117.101 111.617 118.301 112.04 119.208 112.887C120.145 113.733 120.613 114.799 120.613 116.084C120.613 117.339 120.145 118.39 119.208 119.237C118.301 120.055 117.101 120.463 115.608 120.463ZM119.867 122.741V147.31H111.261V122.741H119.867Z" fill="white"/>
<path d="M95.471 147.617C93.2465 147.617 91.2561 147.252 89.4999 146.522C87.773 145.763 86.3973 144.741 85.3728 143.456C84.3776 142.142 83.8215 140.668 83.7044 139.033H92.0464C92.1635 139.821 92.5294 140.434 93.144 140.872C93.7587 141.31 94.5197 141.529 95.4271 141.529C96.1296 141.529 96.6857 141.383 97.0955 141.091C97.5053 140.799 97.7102 140.42 97.7102 139.952C97.7102 139.339 97.3736 138.887 96.7004 138.595C96.0271 138.303 94.9149 137.982 93.3636 137.631C91.6074 137.281 90.1439 136.887 88.9731 136.449C87.8023 136.011 86.7778 135.296 85.8997 134.303C85.0509 133.31 84.6264 131.967 84.6264 130.274C84.6264 128.814 85.0216 127.5 85.8119 126.332C86.6022 125.135 87.7583 124.186 89.2804 123.485C90.8317 122.785 92.6903 122.434 94.8563 122.434C98.076 122.434 100.608 123.223 102.452 124.799C104.296 126.376 105.364 128.449 105.657 131.018H97.8858C97.7394 130.23 97.3882 129.631 96.8321 129.223C96.3052 128.785 95.5881 128.566 94.6807 128.566C93.9782 128.566 93.4367 128.697 93.0562 128.96C92.705 129.223 92.5294 129.587 92.5294 130.055C92.5294 130.639 92.866 131.091 93.5392 131.412C94.2124 131.704 95.2954 132.011 96.7882 132.332C98.5736 132.712 100.052 133.135 101.223 133.602C102.423 134.069 103.462 134.828 104.34 135.879C105.247 136.901 105.701 138.303 105.701 140.084C105.701 141.514 105.276 142.799 104.428 143.938C103.608 145.077 102.423 145.982 100.871 146.653C99.3493 147.296 97.5492 147.617 95.471 147.617Z" fill="white"/>
<path d="M69.6619 122.522C72.5011 122.522 74.7549 123.471 76.4233 125.368C78.0917 127.237 78.9259 129.777 78.9259 132.989V147.31H70.3205V134.128C70.3205 132.726 69.9547 131.631 69.2229 130.843C68.4912 130.025 67.5106 129.617 66.2813 129.617C64.9934 129.617 63.9836 130.025 63.2518 130.843C62.5201 131.631 62.1542 132.726 62.1542 134.128V147.31H53.5488V122.741H62.1542V126.244C62.9152 125.135 63.9397 124.244 65.2275 123.573C66.5154 122.872 67.9936 122.522 69.6619 122.522Z" fill="white"/>
<path d="M49.8937 134.741C49.8937 135.412 49.8498 136.084 49.762 136.755H33.4732C33.561 138.098 33.9269 139.106 34.5708 139.777C35.244 140.42 36.0928 140.741 37.1173 140.741C38.5515 140.741 39.576 140.098 40.1907 138.814H49.3668C48.9863 140.507 48.2399 142.025 47.1277 143.368C46.0447 144.682 44.669 145.719 43.0006 146.478C41.3322 147.237 39.4882 147.617 37.4685 147.617C35.0391 147.617 32.8731 147.106 30.9706 146.084C29.0973 145.062 27.6192 143.602 26.5362 141.704C25.4825 139.806 24.9556 137.573 24.9556 135.004C24.9556 132.434 25.4825 130.215 26.5362 128.347C27.5899 126.449 29.0534 124.989 30.9267 123.967C32.8292 122.945 35.0099 122.434 37.4685 122.434C39.898 122.434 42.0493 122.931 43.9226 123.923C45.7959 124.916 47.2594 126.347 48.3131 128.215C49.3668 130.055 49.8937 132.23 49.8937 134.741ZM41.1127 132.595C41.1127 131.544 40.7614 130.726 40.0589 130.142C39.3565 129.529 38.4784 129.223 37.4246 129.223C36.3709 129.223 35.5074 129.514 34.8342 130.098C34.161 130.653 33.722 131.485 33.5171 132.595H41.1127Z" fill="white"/>
<path d="M11.7666 147.617C9.54203 147.617 7.55167 147.252 5.79547 146.522C4.06854 145.763 2.69284 144.741 1.66839 143.456C0.673211 142.142 0.11708 140.668 0 139.033H8.34196C8.45904 139.821 8.82492 140.434 9.43959 140.872C10.0543 141.31 10.8153 141.529 11.7226 141.529C12.4251 141.529 12.9813 141.383 13.391 141.091C13.8008 140.799 14.0057 140.42 14.0057 139.952C14.0057 139.339 13.6691 138.887 12.9959 138.595C12.3227 138.303 11.2104 137.982 9.65911 137.631C7.90291 137.281 6.43941 136.887 5.26861 136.449C4.09781 136.011 3.07335 135.296 2.19525 134.303C1.34642 133.31 0.922006 131.967 0.922006 130.274C0.922006 128.814 1.31715 127.5 2.10744 126.332C2.89773 125.135 4.0539 124.186 5.57594 123.485C7.12725 122.785 8.9859 122.434 11.1519 122.434C14.3716 122.434 16.9034 123.223 18.7475 124.799C20.5915 126.376 21.6598 128.449 21.9525 131.018H14.1813C14.035 130.23 13.6837 129.631 13.1276 129.223C12.6008 128.785 11.8836 128.566 10.9763 128.566C10.2738 128.566 9.73229 128.697 9.35178 128.96C9.00054 129.223 8.82492 129.587 8.82492 130.055C8.82492 130.639 9.16152 131.091 9.83473 131.412C10.5079 131.704 11.5909 132.011 13.0837 132.332C14.8692 132.712 16.3473 133.135 17.5181 133.602C18.7182 134.069 19.7573 134.828 20.6354 135.879C21.5427 136.901 21.9964 138.303 21.9964 140.084C21.9964 141.514 21.572 142.799 20.7232 143.938C19.9036 145.077 18.7182 145.982 17.1669 146.653C15.6448 147.296 13.8447 147.617 11.7666 147.617Z" fill="white"/>
<path fill-rule="evenodd" clip-rule="evenodd" d="M166.95 147.617C174.157 147.617 180 141.975 180 135.017C180 128.058 174.157 122.417 166.95 122.417C159.743 122.417 153.9 128.058 153.9 135.017C153.9 141.975 159.743 147.617 166.95 147.617ZM164.55 140.713L172.741 136.354C173.832 135.774 173.832 134.26 172.741 133.679L164.55 129.321C163.496 128.76 162.205 129.496 162.205 130.658V139.375C162.205 140.537 163.496 141.274 164.55 140.713Z" fill="white"/>
<path d="M127.919 47.1216C130.043 45.8999 130.584 43.0723 128.893 41.3028C119.255 31.2169 105.649 24.9309 90.5689 24.9309C75.519 24.9309 61.9367 31.1921 52.3022 41.2431C50.607 43.0116 51.1464 45.8429 53.2719 47.0657L56.9514 49.1825C58.6083 50.1358 60.696 49.7733 62.0676 48.4442C69.4319 41.3082 79.4854 36.9136 90.5689 36.9136C101.678 36.9136 111.752 41.3283 119.121 48.4932C120.492 49.8266 122.583 50.1916 124.242 49.2369L127.919 47.1216Z" fill="url(#paint0_linear_2001_49)"/>
<path d="M149.798 34.5346C151.855 33.3511 152.44 30.6484 150.942 28.8117C136.684 11.3336 114.935 0.166655 90.5689 0.166656C66.2316 0.166658 44.5056 11.3073 30.2466 28.7499C28.7454 30.5863 29.3296 33.2915 31.388 34.4757L34.9472 36.5233C36.7013 37.5325 38.9253 37.0699 40.2288 35.5251C52.2876 21.2327 70.3637 12.1493 90.5689 12.1493C110.8 12.1493 128.896 21.2559 140.955 35.5798C142.258 37.1274 144.484 37.5917 146.24 36.5816L149.798 34.5346Z" fill="url(#paint1_linear_2001_49)"/>
<path fill-rule="evenodd" clip-rule="evenodd" d="M90.5931 103.408C105.204 103.408 117.049 91.6058 117.049 77.0465C117.049 62.4872 105.204 50.6846 90.5931 50.6846C75.9821 50.6846 64.1376 62.4872 64.1376 77.0465C64.1376 91.6058 75.9821 103.408 90.5931 103.408ZM85.7274 88.9638L102.332 79.845C104.544 78.6303 104.544 75.4627 102.332 74.248L85.7274 65.1292C83.5902 63.9556 80.9729 65.4962 80.9729 67.9278L80.9729 86.1652C80.9729 88.5969 83.5902 90.1374 85.7274 88.9638Z" fill="url(#paint2_linear_2001_49)"/>
<defs>
<linearGradient id="paint0_linear_2001_49" x1="90.593" y1="0.166656" x2="90.593" y2="103.408" gradientUnits="userSpaceOnUse">
<stop stop-color="#00EEFF"/>
<stop offset="1" stop-color="#177CFF"/>
</linearGradient>
<linearGradient id="paint1_linear_2001_49" x1="90.593" y1="0.166656" x2="90.593" y2="103.408" gradientUnits="userSpaceOnUse">
<stop stop-color="#00EEFF"/>
<stop offset="1" stop-color="#177CFF"/>
</linearGradient>
<linearGradient id="paint2_linear_2001_49" x1="90.593" y1="0.166656" x2="90.593" y2="103.408" gradientUnits="userSpaceOnUse">
<stop stop-color="#00EEFF"/>
<stop offset="1" stop-color="#177CFF"/>
</linearGradient>
</defs>
</svg>
