<svg width="56" height="56" viewBox="0 0 56 56" fill="none" xmlns="http://www.w3.org/2000/svg">
<path d="M0 14C0 6.26801 6.26801 0 14 0H42C49.732 0 56 6.26801 56 14V42C56 49.732 49.732 56 42 56H14C6.26801 56 0 49.732 0 42V14Z" fill="#2B7FFF" fill-opacity="0.1"/>
<path fill-rule="evenodd" clip-rule="evenodd" d="M28.0005 14C33.7162 14.0001 38.6313 17.4261 40.8062 22.336C40.8269 22.376 40.8444 22.4175 40.8602 22.4601C41.5932 24.1594 42 26.0323 42 28.0005C41.9998 35.7323 35.7323 41.9998 28.0005 42C27.5332 42 27.0713 41.9757 26.6157 41.9309C26.6056 41.9301 26.5955 41.9299 26.5855 41.9288C19.5182 41.2192 14.0002 35.2547 14 28.0005C14.0001 22.826 16.8098 18.31 20.9846 15.8867C21.0024 15.876 21.0201 15.8652 21.0386 15.8554C23.0896 14.6771 25.4655 14.0001 28.0005 14ZM20.4482 18.9489C18.4432 20.6237 17.0023 22.9511 16.4545 25.6054H18.9737C19.9508 25.6054 20.8884 25.994 21.5794 26.6848C22.27 27.3755 22.6586 28.3125 22.6587 29.2893V30.5792L22.6652 30.7249C22.6987 31.0619 22.848 31.379 23.0894 31.6208C23.3658 31.8971 23.7412 32.0525 24.1321 32.0525C25.1091 32.0525 26.0468 32.4411 26.7377 33.1319C27.4284 33.8227 27.8159 34.7606 27.816 35.7375V39.784C27.8774 39.785 27.9389 39.7894 28.0005 39.7894C28.9523 39.7894 29.8773 39.6732 30.7637 39.4602V34.4476C30.7638 33.4706 31.1523 32.534 31.8431 31.8431C32.534 31.1523 33.4706 30.7638 34.4476 30.7637H39.4602C39.6732 29.8772 39.7894 28.9524 39.7894 28.0005C39.7894 26.5765 39.5375 25.2113 39.0749 23.9475H35.7375C34.9299 23.9477 34.2646 24.6133 34.2641 25.4208C34.2641 26.3978 33.8755 27.3355 33.1848 28.0264C32.494 28.7171 31.5571 29.1056 30.5802 29.1058C28.5514 29.1058 26.8953 27.4497 26.8953 25.4208C26.8951 25.0303 26.7397 24.6554 26.4635 24.3792C26.1873 24.1031 25.8125 23.9476 25.4219 23.9475C24.1028 23.9475 22.8381 23.4231 21.9053 22.4903C20.9726 21.5576 20.4482 20.2928 20.4482 18.9737V18.9489ZM16.2106 28.0005C16.2107 33.6907 20.243 38.4376 25.6054 39.5444V35.7375C25.6053 35.3467 25.45 34.9711 25.1737 34.6948C24.8974 34.4188 24.5227 34.2631 24.1321 34.2631C23.155 34.263 22.2174 33.8757 21.5265 33.1848C20.8356 32.4939 20.4482 31.5562 20.4482 30.5792V29.2893C20.448 28.8988 20.2925 28.5239 20.0164 28.2477C19.7401 27.9715 19.3645 27.816 18.9737 27.816H16.216C16.215 27.8774 16.2106 27.9389 16.2106 28.0005ZM34.4476 32.9743C34.0569 32.9744 33.6823 33.1297 33.406 33.406C33.1297 33.6823 32.9744 34.0569 32.9743 34.4476V38.6885C35.4875 37.517 37.5182 35.4875 38.6896 32.9743H34.4476ZM28.0005 16.2106C26.0772 16.2106 24.2627 16.6738 22.6587 17.4907V18.9737C22.6587 19.7066 22.9501 20.4092 23.4683 20.9274C23.9865 21.4456 24.6891 21.7369 25.4219 21.7369C26.3989 21.737 27.3367 22.1255 28.0275 22.8163C28.7181 23.507 29.1056 24.4442 29.1058 25.4208C29.1058 26.2289 29.7722 26.8953 30.5802 26.8953C30.9708 26.8951 31.3456 26.7397 31.6218 26.4635C31.898 26.1872 32.0536 25.8115 32.0536 25.4208C32.054 23.3925 33.709 21.7371 35.7375 21.7369H37.9869C35.9012 18.4183 32.2095 16.2107 28.0005 16.2106Z" fill="#51A2FF"/>
</svg>
