<svg width="80" height="80" viewBox="0 0 80 80" fill="none" xmlns="http://www.w3.org/2000/svg">
<rect width="80" height="80" rx="10" fill="#ECECEC"/>
<path fill-rule="evenodd" clip-rule="evenodd" d="M32.3295 35.7568V55H38.4659V35.7568H32.3295ZM29.2614 55V42.4179H23.125V55H29.2614ZM41.5341 55V44.6383H47.6705V55H41.5341ZM50.7386 39.4574V55H56.875V39.4574H50.7386Z" fill="#232323"/>
<path fill-rule="evenodd" clip-rule="evenodd" d="M36.803 26.3574L35.499 25L34.0922 26.2597L23.3536 35.8813L25.9646 38.5931L35.298 30.2297L43.9641 39.237L45.3187 40.6432L46.7255 39.2858L52.8618 33.3649L55.3409 35.7569L56.875 34.2767V26.8755H49.2045L47.6705 28.3557L50.1495 30.7478L45.4199 35.3129L36.803 26.3574Z" fill="#232323"/>
</svg>
