<svg width="56" height="56" viewBox="0 0 56 56" fill="none" xmlns="http://www.w3.org/2000/svg">
<path d="M0 14C0 6.26801 6.26801 0 14 0H42C49.732 0 56 6.26801 56 14V42C56 49.732 49.732 56 42 56H14C6.26801 56 0 49.732 0 42V14Z" fill="#00D3F2" fill-opacity="0.1"/>
<path d="M28 14C20.2672 14 14 20.2672 14 28C14 35.7328 20.2672 42 28 42C35.7328 42 42 35.7328 42 28C42 20.2672 35.7328 14 28 14ZM28 39.6648C21.5578 39.6648 16.3352 34.4422 16.3352 28C16.3352 21.5578 21.5578 16.3352 28 16.3352C34.4422 16.3352 39.6648 21.5578 39.6648 28C39.6648 34.4422 34.4422 39.6648 28 39.6648ZM29.1648 18.6648H26.8297V29.1648H35V26.8297H29.1648V18.6648Z" fill="#00D3F2"/>
</svg>
