<svg width="60" height="60" viewBox="0 0 60 60" fill="none" xmlns="http://www.w3.org/2000/svg">
<path d="M47 29.4C47 29.7183 46.8721 30.0235 46.6443 30.2485C46.4166 30.4736 46.1078 30.6 45.7857 30.6H40.9286V35.4H42.1429C42.787 35.4 43.4047 35.6529 43.8601 36.1029C44.3156 36.553 44.5714 37.1635 44.5714 37.8V42.6C44.5714 43.2365 44.3156 43.847 43.8601 44.2971C43.4047 44.7471 42.787 45 42.1429 45H37.2857C36.6416 45 36.0239 44.7471 35.5685 44.2971C35.113 43.847 34.8571 43.2365 34.8571 42.6V37.8C34.8571 37.1635 35.113 36.553 35.5685 36.1029C36.0239 35.6529 36.6416 35.4 37.2857 35.4H38.5V30.6H21.5V35.4H22.7143C23.3584 35.4 23.9761 35.6529 24.4315 36.1029C24.887 36.553 25.1429 37.1635 25.1429 37.8V42.6C25.1429 43.2365 24.887 43.847 24.4315 44.2971C23.9761 44.7471 23.3584 45 22.7143 45H17.8571C17.213 45 16.5953 44.7471 16.1399 44.2971C15.6844 43.847 15.4286 43.2365 15.4286 42.6V37.8C15.4286 37.1635 15.6844 36.553 16.1399 36.1029C16.5953 35.6529 17.213 35.4 17.8571 35.4H19.0714V30.6H14.2143C13.8922 30.6 13.5834 30.4736 13.3557 30.2485C13.1279 30.0235 13 29.7183 13 29.4C13 29.0817 13.1279 28.7765 13.3557 28.5515C13.5834 28.3264 13.8922 28.2 14.2143 28.2H28.7857V24.6H27.5714C26.9273 24.6 26.3096 24.3471 25.8542 23.8971C25.3987 23.447 25.1429 22.8365 25.1429 22.2V17.4C25.1429 16.7635 25.3987 16.153 25.8542 15.7029C26.3096 15.2529 26.9273 15 27.5714 15H32.4286C33.0727 15 33.6904 15.2529 34.1458 15.7029C34.6013 16.153 34.8571 16.7635 34.8571 17.4V22.2C34.8571 22.8365 34.6013 23.447 34.1458 23.8971C33.6904 24.3471 33.0727 24.6 32.4286 24.6H31.2143V28.2H45.7857C46.1078 28.2 46.4166 28.3264 46.6443 28.5515C46.8721 28.7765 47 29.0817 47 29.4Z" fill="#232323"/>
</svg>
