<svg width="60" height="60" viewBox="0 0 60 60" fill="none" xmlns="http://www.w3.org/2000/svg">
<path d="M44.1625 30.819V32.0695C44.1684 32.362 44.0716 32.6474 43.8888 32.8759C43.7061 33.1044 43.4491 33.2615 43.1625 33.32L41.6125 33.6326C41.3173 34.8771 40.819 36.0643 40.1375 37.1465L41.025 38.4721C41.1759 38.7082 41.2431 38.9882 41.2159 39.2671C41.1887 39.546 41.0687 39.8077 40.875 40.0102L39.1625 41.7234C38.9576 41.9263 38.6888 42.0521 38.4018 42.0794C38.1147 42.1068 37.827 42.034 37.5875 41.8735L36.25 40.9731C35.1762 41.6755 33.9935 42.1953 32.75 42.5112L32.5 43.9993C32.4416 44.2861 32.2845 44.5432 32.0561 44.726C31.8277 44.9088 31.5424 45.0056 31.25 44.9997H28.75C28.4576 45.0056 28.1723 44.9088 27.9439 44.726C27.7155 44.5432 27.5584 44.2861 27.5 43.9993L27.25 42.5112C26.0065 42.1953 24.8238 41.6755 23.75 40.9731L22.425 41.861C22.1855 42.0215 21.8978 42.0943 21.6107 42.0669C21.3237 42.0396 21.0549 41.9138 20.85 41.7109L19.125 40.0102C18.9222 39.8052 18.7965 39.5363 18.7691 39.2491C18.7418 38.962 18.8145 38.6742 18.975 38.4346L19.8625 37.109C19.181 36.0268 18.6827 34.8396 18.3875 33.5951L16.8375 33.2825C16.5509 33.224 16.2939 33.0668 16.1112 32.8384C15.9284 32.6099 15.8316 32.3245 15.8375 32.032V30.7814H24.0375C24.0375 32.3634 24.6657 33.8806 25.7839 34.9993C26.9021 36.1179 28.4186 36.7464 30 36.7464C31.5814 36.7464 33.0979 36.1179 34.2161 34.9993C35.3343 33.8806 35.9625 32.3634 35.9625 30.7814L44.1625 30.819ZM36.4625 19.7644C36.4625 20.5339 36.768 21.2718 37.3119 21.8159C37.8557 22.36 38.5934 22.6656 39.3625 22.6656C40.1316 22.6656 40.8693 22.36 41.4131 21.8159C41.957 21.2718 42.2625 20.5339 42.2625 19.7644C42.2625 18.995 41.957 18.2571 41.4131 17.713C40.8693 17.1689 40.1316 16.8633 39.3625 16.8633C38.5934 16.8633 37.8557 17.1689 37.3119 17.713C36.768 18.2571 36.4625 18.995 36.4625 19.7644ZM17.75 19.7644C17.75 20.5339 18.0555 21.2718 18.5994 21.8159C19.1432 22.36 19.8809 22.6656 20.65 22.6656C21.4191 22.6656 22.1568 22.36 22.7006 21.8159C23.2445 21.2718 23.55 20.5339 23.55 19.7644C23.55 18.995 23.2445 18.2571 22.7006 17.713C22.1568 17.1689 21.4191 16.8633 20.65 16.8633C19.8809 16.8633 19.1432 17.1689 18.5994 17.713C18.0555 18.2571 17.75 18.995 17.75 19.7644ZM23.5 26.0045C23.0515 25.7192 22.5684 25.4922 22.0625 25.3292C20.7224 24.9525 19.2941 25.0417 18.0112 25.5823C16.7283 26.1229 15.6667 27.0829 15 28.3054H22.1625C22.5329 27.497 22.9809 26.7264 23.5 26.0045ZM37.725 28.3429H45C44.3366 27.1133 43.2746 26.1462 41.9888 25.6007C40.7029 25.0553 39.2697 24.9639 37.925 25.3417C37.4098 25.5067 36.9182 25.7379 36.4625 26.0295C36.9532 26.7604 37.3758 27.5348 37.725 28.3429ZM36.3375 28.3429C35.8384 27.0465 34.974 25.9227 33.849 25.1081C32.7241 24.2935 31.387 23.8229 30 23.7536C28.6015 23.8152 27.2514 24.2833 26.1147 25.1006C24.978 25.918 24.1041 27.049 23.6 28.3555L36.3375 28.3429ZM26.2375 18.639C26.2375 19.6041 26.6207 20.5297 27.3029 21.2121C27.9851 21.8946 28.9103 22.278 29.875 22.278C30.8397 22.278 31.7649 21.8946 32.4471 21.2121C33.1293 20.5297 33.5125 19.6041 33.5125 18.639C33.5125 17.6739 33.1293 16.7483 32.4471 16.0658C31.7649 15.3834 30.8397 15 29.875 15C28.9103 15 27.9851 15.3834 27.3029 16.0658C26.6207 16.7483 26.2375 17.6739 26.2375 18.639Z" fill="#232323"/>
</svg>
