<svg width="80" height="80" viewBox="0 0 80 80" fill="none" xmlns="http://www.w3.org/2000/svg">
<rect width="80" height="80" rx="10" fill="#ECECEC"/>
<path d="M32.3542 40C30.1042 40.067 28.2639 40.9241 26.8333 42.5714H24.0417C22.9028 42.5714 21.9444 42.3002 21.1667 41.7578C20.3889 41.2154 20 40.4219 20 39.3772C20 34.6496 20.8611 32.2857 22.5833 32.2857C22.6667 32.2857 22.9688 32.4263 23.4896 32.7076C24.0104 32.9888 24.6875 33.2734 25.5208 33.5614C26.3542 33.8493 27.1806 33.9933 28 33.9933C28.9306 33.9933 29.8542 33.8393 30.7708 33.5312C30.7014 34.0268 30.6667 34.4688 30.6667 34.8571C30.6667 36.7188 31.2292 38.433 32.3542 40ZM54.6667 52.7969C54.6667 54.404 54.1597 55.673 53.1458 56.6038C52.1319 57.5346 50.7847 58 49.1042 58H30.8958C29.2153 58 27.8681 57.5346 26.8542 56.6038C25.8403 55.673 25.3333 54.404 25.3333 52.7969C25.3333 52.0871 25.3576 51.394 25.4062 50.7176C25.4549 50.0413 25.5521 49.3114 25.6979 48.5279C25.8438 47.7444 26.0278 47.0179 26.25 46.3482C26.4722 45.6786 26.7708 45.0257 27.1458 44.3895C27.5208 43.7533 27.9514 43.2109 28.4375 42.7623C28.9236 42.3136 29.5174 41.9554 30.2188 41.6875C30.9201 41.4196 31.6944 41.2857 32.5417 41.2857C32.6806 41.2857 32.9792 41.4297 33.4375 41.7176C33.8958 42.0056 34.4028 42.327 34.9583 42.6819C35.5139 43.0368 36.2569 43.3583 37.1875 43.6462C38.1181 43.9342 39.0556 44.0781 40 44.0781C40.9444 44.0781 41.8819 43.9342 42.8125 43.6462C43.7431 43.3583 44.4861 43.0368 45.0417 42.6819C45.5972 42.327 46.1042 42.0056 46.5625 41.7176C47.0208 41.4297 47.3194 41.2857 47.4583 41.2857C48.3056 41.2857 49.0799 41.4196 49.7812 41.6875C50.4826 41.9554 51.0764 42.3136 51.5625 42.7623C52.0486 43.2109 52.4792 43.7533 52.8542 44.3895C53.2292 45.0257 53.5278 45.6786 53.75 46.3482C53.9722 47.0179 54.1562 47.7444 54.3021 48.5279C54.4479 49.3114 54.5451 50.0413 54.5938 50.7176C54.6424 51.394 54.6667 52.0871 54.6667 52.7969ZM33.3333 27.1429C33.3333 28.5625 32.8125 29.7746 31.7708 30.779C30.7292 31.7835 29.4722 32.2857 28 32.2857C26.5278 32.2857 25.2708 31.7835 24.2292 30.779C23.1875 29.7746 22.6667 28.5625 22.6667 27.1429C22.6667 25.7232 23.1875 24.5112 24.2292 23.5067C25.2708 22.5022 26.5278 22 28 22C29.4722 22 30.7292 22.5022 31.7708 23.5067C32.8125 24.5112 33.3333 25.7232 33.3333 27.1429ZM48 34.8571C48 36.9866 47.2188 38.8047 45.6562 40.3114C44.0938 41.8181 42.2083 42.5714 40 42.5714C37.7917 42.5714 35.9062 41.8181 34.3438 40.3114C32.7812 38.8047 32 36.9866 32 34.8571C32 32.7277 32.7812 30.9096 34.3438 29.4029C35.9062 27.8962 37.7917 27.1429 40 27.1429C42.2083 27.1429 44.0938 27.8962 45.6562 29.4029C47.2188 30.9096 48 32.7277 48 34.8571ZM60 39.3772C60 40.4219 59.6111 41.2154 58.8333 41.7578C58.0556 42.3002 57.0972 42.5714 55.9583 42.5714H53.1667C51.7361 40.9241 49.8958 40.067 47.6458 40C48.7708 38.433 49.3333 36.7188 49.3333 34.8571C49.3333 34.4688 49.2986 34.0268 49.2292 33.5312C50.1458 33.8393 51.0694 33.9933 52 33.9933C52.8194 33.9933 53.6458 33.8493 54.4792 33.5614C55.3125 33.2734 55.9896 32.9888 56.5104 32.7076C57.0312 32.4263 57.3333 32.2857 57.4167 32.2857C59.1389 32.2857 60 34.6496 60 39.3772ZM57.3333 27.1429C57.3333 28.5625 56.8125 29.7746 55.7708 30.779C54.7292 31.7835 53.4722 32.2857 52 32.2857C50.5278 32.2857 49.2708 31.7835 48.2292 30.779C47.1875 29.7746 46.6667 28.5625 46.6667 27.1429C46.6667 25.7232 47.1875 24.5112 48.2292 23.5067C49.2708 22.5022 50.5278 22 52 22C53.4722 22 54.7292 22.5022 55.7708 23.5067C56.8125 24.5112 57.3333 25.7232 57.3333 27.1429Z" fill="#232323"/>
</svg>
