<svg width="56" height="56" viewBox="0 0 56 56" fill="none" xmlns="http://www.w3.org/2000/svg">
<path d="M0 14C0 6.26801 6.26801 0 14 0H42C49.732 0 56 6.26801 56 14V42C56 49.732 49.732 56 42 56H14C6.26801 56 0 49.732 0 42V14Z" fill="#AD46FF" fill-opacity="0.1"/>
<path d="M32.0523 39.4127V36.8769C32.0523 35.82 31.6258 34.8061 30.8661 34.0587C30.1061 33.3114 29.0751 32.8912 28.0004 32.8911H20.2635C19.1887 32.8911 18.1578 33.3113 17.3978 34.0587C16.6378 34.8061 16.2105 35.8199 16.2105 36.8769V39.4127C16.2105 40.013 15.7157 40.4997 15.1053 40.4997C14.4948 40.4997 14 40.013 14 39.4127V36.8769C14 35.2433 14.6603 33.6768 15.8349 32.5217C17.0095 31.3666 18.6024 30.7172 20.2635 30.7172H28.0004C29.6613 30.7173 31.2545 31.3667 32.429 32.5217C33.6033 33.6768 34.2628 35.2435 34.2628 36.8769V39.4127C34.2628 40.013 33.768 40.4997 33.1575 40.4997C32.5473 40.4995 32.0523 40.0129 32.0523 39.4127Z" fill="#C27AFF"/>
<path d="M28.1839 21.6597C28.1839 19.4587 26.37 17.6741 24.1319 17.6739C21.8937 17.6739 20.0789 19.4586 20.0789 21.6597C20.0791 23.8606 21.8939 25.6444 24.1319 25.6444C26.3699 25.6443 28.1837 23.8605 28.1839 21.6597ZM30.3944 21.6597C30.3942 25.0611 27.5907 27.8181 24.1319 27.8183C20.673 27.8183 17.8686 25.0612 17.8684 21.6597C17.8684 18.258 20.6729 15.5 24.1319 15.5C27.5908 15.5002 30.3944 18.2581 30.3944 21.6597Z" fill="#C27AFF"/>
<path d="M39.7895 39.4131V36.8772C39.7888 35.9944 39.4899 35.1368 38.94 34.439C38.3899 33.7411 37.6194 33.2417 36.75 33.0209C36.159 32.8708 35.8041 32.2785 35.9567 31.6973C36.1093 31.1161 36.7116 30.767 37.3026 30.9171C38.6462 31.2583 39.8362 32.0284 40.6864 33.1069C41.5366 34.1855 41.999 35.5114 42 36.8762V39.4131C41.9998 40.0132 41.505 40.5 40.8947 40.5C40.2844 40.5 39.7897 40.0132 39.7895 39.4131Z" fill="#C27AFF"/>
<path d="M35.9308 21.6653C35.9307 20.7806 35.6319 19.9208 35.0802 19.2218C34.5285 18.5228 33.7555 18.0243 32.8837 17.8048C32.2924 17.6559 31.9358 17.0637 32.0872 16.4822C32.2386 15.9006 32.8407 15.5499 33.4321 15.6988C34.7793 16.038 35.9739 16.8083 36.8266 17.8886C37.6793 18.9689 38.1412 20.2978 38.1413 21.6653C38.1413 23.0328 37.6791 24.3618 36.8266 25.442C35.9739 26.5224 34.7793 27.2937 33.4321 27.6329C32.8408 27.7817 32.2387 27.4308 32.0872 26.8495C31.9358 26.268 32.2924 25.6759 32.8837 25.5269C33.7554 25.3075 34.5285 24.8089 35.0802 24.1099C35.632 23.4108 35.9308 22.5503 35.9308 21.6653Z" fill="#C27AFF"/>
</svg>
