<svg width="60" height="60" viewBox="0 0 60 60" fill="none" xmlns="http://www.w3.org/2000/svg">
<path d="M24.15 43.8195C22.325 43.0315 20.7375 41.9625 19.3875 40.6125C18.0375 39.2625 16.969 37.675 16.182 35.85C15.395 34.025 15.001 32.075 15 30C14.999 27.925 15.393 25.975 16.182 24.15C16.971 22.325 18.0395 20.7375 19.3875 19.3875C20.7355 18.0375 22.323 16.969 24.15 16.182C25.977 15.395 27.927 15.001 30 15C32.073 14.999 34.023 15.393 35.85 16.182C37.677 16.971 39.2645 18.0395 40.6125 19.3875C41.9605 20.7355 43.0295 22.323 43.8195 24.15C44.6095 25.977 45.003 27.927 45 30C44.997 32.073 44.603 34.023 43.818 35.85C43.033 37.677 41.9645 39.2645 40.6125 40.6125C39.2605 41.9605 37.673 43.0295 35.85 43.8195C34.027 44.6095 32.077 45.003 30 45C27.923 44.997 25.973 44.6045 24.15 43.8195ZM25.65 41.175L27.45 37.05C26.4 36.675 25.494 36.094 24.732 35.307C23.97 34.52 23.376 33.601 22.95 32.55L18.825 34.275C19.4 35.875 20.2875 37.275 21.4875 38.475C22.6875 39.675 24.075 40.575 25.65 41.175ZM22.95 27.45C23.375 26.4 23.969 25.4815 24.732 24.6945C25.495 23.9075 26.401 23.326 27.45 22.95L25.725 18.825C24.125 19.425 22.725 20.325 21.525 21.525C20.325 22.725 19.425 24.125 18.825 25.725L22.95 27.45ZM33.1875 33.1875C34.0625 32.3125 34.5 31.25 34.5 30C34.5 28.75 34.0625 27.6875 33.1875 26.8125C32.3125 25.9375 31.25 25.5 30 25.5C28.75 25.5 27.6875 25.9375 26.8125 26.8125C25.9375 27.6875 25.5 28.75 25.5 30C25.5 31.25 25.9375 32.3125 26.8125 33.1875C27.6875 34.0625 28.75 34.5 30 34.5C31.25 34.5 32.3125 34.0625 33.1875 33.1875ZM34.35 41.175C35.925 40.575 37.3065 39.6815 38.4945 38.4945C39.6825 37.3075 40.576 35.926 41.175 34.35L37.05 32.55C36.675 33.6 36.1 34.5065 35.325 35.2695C34.55 36.0325 33.65 36.626 32.625 37.05L34.35 41.175ZM37.05 27.375L41.175 25.65C40.575 24.075 39.6815 22.694 38.4945 21.507C37.3075 20.32 35.926 19.426 34.35 18.825L32.625 23.025C33.65 23.4 34.5375 23.969 35.2875 24.732C36.0375 25.495 36.625 26.376 37.05 27.375Z" fill="#232323"/>
</svg>
