<svg width="56" height="56" viewBox="0 0 56 56" fill="none" xmlns="http://www.w3.org/2000/svg">
<path d="M0 14C0 6.26801 6.26801 0 14 0H42C49.732 0 56 6.26801 56 14V42C56 49.732 49.732 56 42 56H14C6.26801 56 0 49.732 0 42V14Z" fill="#00C950" fill-opacity="0.1"/>
<path d="M26.875 40.8947V15.1053C26.875 14.4948 27.3787 14 28 14C28.6213 14 29.125 14.4948 29.125 15.1053V40.8947C29.125 41.5052 28.6213 42 28 42C27.3787 42 26.875 41.5052 26.875 40.8947Z" fill="#05DF72"/>
<path d="M34.75 32.5134C34.75 31.6096 34.3843 30.7423 33.7338 30.1032C33.0834 29.4644 32.2013 29.1059 31.2816 29.1058H24.7184C23.2019 29.1057 21.7478 28.5132 20.6754 27.4598C19.6029 26.4061 19 24.9767 19 23.4866C19.0001 21.9966 19.603 20.5681 20.6754 19.5145C21.7478 18.4609 23.2018 17.8686 24.7184 17.8685H34.5621C35.1835 17.8685 35.6871 18.3633 35.6871 18.9737C35.6871 19.5842 35.1835 20.079 34.5621 20.079H24.7184C23.7985 20.0791 22.9167 20.4384 22.2662 21.0774C21.6158 21.7165 21.2501 22.5829 21.25 23.4866C21.25 24.3904 21.6157 25.2577 22.2662 25.8968C22.9166 26.5358 23.7986 26.8952 24.7184 26.8953H31.2816C32.798 26.8954 34.2522 27.4869 35.3246 28.5402C36.3971 29.5939 37 31.0233 37 32.5134C37 34.0035 36.3971 35.4329 35.3246 36.4866C34.2522 37.5399 32.798 38.1314 31.2816 38.1315H20.125C19.5037 38.1315 19 37.6367 19 37.0263C19.0002 36.416 19.5038 35.921 20.125 35.921H31.2816C32.2013 35.9209 33.0834 35.5624 33.7338 34.9236C34.3843 34.2845 34.75 33.4172 34.75 32.5134Z" fill="#05DF72"/>
</svg>
