<svg width="56" height="56" viewBox="0 0 56 56" fill="none" xmlns="http://www.w3.org/2000/svg">
<path d="M0 14C0 6.26801 6.26801 0 14 0H42C49.732 0 56 6.26801 56 14V42C56 49.732 49.732 56 42 56H14C6.26801 56 0 49.732 0 42V14Z" fill="#00B8DB" fill-opacity="0.1"/>
<path d="M40.7269 20.5C40.7699 20.5 40.813 20.501 40.8558 20.5052C40.9308 20.5126 41.0037 20.5275 41.0742 20.5471C41.0798 20.5486 41.0857 20.5496 41.0913 20.5513C41.1116 20.5572 41.1311 20.5653 41.1509 20.5722C41.2083 20.592 41.2647 20.6152 41.3192 20.6433L41.3342 20.6507C41.3928 20.682 41.4478 20.7188 41.5004 20.7584C41.5441 20.7914 41.5871 20.8269 41.6271 20.8662C41.7 20.9379 41.761 21.0168 41.8125 21.0996C41.9307 21.2893 42 21.5118 42 21.7504V29.2505C41.9999 29.9408 41.4297 30.5009 40.7269 30.5009C40.0242 30.5008 39.454 29.9407 39.4538 29.2505V24.768L30.8086 33.259C30.3116 33.747 29.5062 33.7469 29.0092 33.259L23.5451 27.8924L16.1729 35.1341C15.676 35.6221 14.8695 35.6219 14.3725 35.1341C13.8759 34.6459 13.8758 33.8549 14.3725 33.3668L22.6459 25.242L22.7418 25.1562C23.2417 24.7554 23.9792 24.7842 24.4453 25.242L29.9084 30.6076L37.6545 23.0007H33.0905C32.3878 23.0007 31.8176 22.4406 31.8175 21.7504C31.8175 21.06 32.3877 20.5001 33.0905 20.5H40.7269Z" fill="#00D3F2"/>
</svg>
