<svg width="60" height="60" viewBox="0 0 60 60" fill="none" xmlns="http://www.w3.org/2000/svg">
<path d="M28.2001 31.2499L30.0001 29.8833L31.7834 31.2333C32.4334 31.7166 33.3167 31.0999 33.0834 30.3166L32.3834 28.0499L34.3834 26.4666C35.0001 25.9999 34.6501 24.9999 33.8501 24.9999H31.5167L30.8001 22.7666C30.7453 22.5999 30.6392 22.4547 30.4971 22.3518C30.3549 22.2489 30.1839 22.1935 30.0084 22.1935C29.8329 22.1935 29.6619 22.2489 29.5197 22.3518C29.3776 22.4547 29.2715 22.5999 29.2167 22.7666L28.4834 24.9999H26.1334C25.3501 24.9999 25.0001 25.9999 25.6167 26.4833L27.6001 28.0666L26.9001 30.3333C26.6667 31.1166 27.5501 31.7333 28.2001 31.2499ZM20.0001 46.0166C20.0001 47.1499 21.1167 47.9499 22.2001 47.5999L30.0001 44.9999L37.8001 47.5999C38.0512 47.6855 38.3191 47.7098 38.5815 47.6708C38.8438 47.6318 39.0931 47.5305 39.3084 47.3756C39.5237 47.2206 39.6988 47.0164 39.8191 46.78C39.9395 46.5436 40.0015 46.2819 40.0001 46.0166V35.4666C42.1491 33.0391 43.3349 29.9087 43.3334 26.6666C43.3334 19.2999 37.3667 13.3333 30.0001 13.3333C22.6334 13.3333 16.6667 19.2999 16.6667 26.6666C16.6667 30.0499 17.9334 33.1166 20.0001 35.4666V46.0166ZM30.0001 16.6666C35.5167 16.6666 40.0001 21.1499 40.0001 26.6666C40.0001 32.1833 35.5167 36.6666 30.0001 36.6666C24.4834 36.6666 20.0001 32.1833 20.0001 26.6666C20.0001 21.1499 24.4834 16.6666 30.0001 16.6666Z" fill="#232323"/>
</svg>
