<svg width="80" height="80" viewBox="0 0 80 80" fill="none" xmlns="http://www.w3.org/2000/svg">
<rect width="80" height="80" rx="10" fill="#ECECEC"/>
<path d="M29.6878 37.2462C29.857 37.2462 30.0458 37.2722 30.2542 37.3243C30.4625 37.3764 30.6708 37.448 30.8791 37.5391C31.0875 37.6303 31.2958 37.7149 31.5041 37.793C31.7124 37.8711 31.9012 37.9493 32.0705 38.0274L31.758 38.0665C31.6539 38.0795 31.5432 38.086 31.426 38.086C31.2046 38.086 31.0028 38.0534 30.8205 37.9883C30.6383 37.9232 30.469 37.8386 30.3127 37.7344C30.1565 37.6303 30.0003 37.5521 29.844 37.5001C29.6878 37.448 29.5445 37.4089 29.4143 37.3829C29.2841 37.3829 29.1669 37.4089 29.0628 37.461C28.9586 37.5131 28.8544 37.5717 28.7503 37.6368C28.7503 37.5847 28.7047 37.5587 28.6136 37.5587C28.7047 37.4675 28.874 37.3959 29.1214 37.3438C29.3688 37.2917 29.5576 37.2592 29.6878 37.2462ZM32.3244 38.125C32.8583 38.125 33.3465 38.2162 33.7892 38.3985C33.6069 38.4636 33.4246 38.5157 33.2424 38.5547C33.0601 38.5938 32.8713 38.6198 32.676 38.6328C32.4156 38.6328 32.1812 38.6068 31.9729 38.5547C32.038 38.4506 32.1031 38.3855 32.1682 38.3594C32.2333 38.3334 32.2853 38.2553 32.3244 38.125ZM40 20.0005C41.8359 20.0005 43.6002 20.2414 45.2928 20.7231C46.9855 21.2049 48.574 21.8755 50.0583 22.7348C51.5427 23.5942 52.8968 24.6423 54.1207 25.8793C55.3447 27.1162 56.3863 28.4638 57.2457 29.9221C58.105 31.3804 58.7821 32.9689 59.2769 34.6876C59.7716 36.4063 60.0125 38.1771 59.9995 40C59.9995 41.8359 59.7586 43.6002 59.2769 45.2928C58.7951 46.9855 58.1245 48.574 57.2652 50.0583C56.4058 51.5427 55.3577 52.8968 54.1207 54.1207C52.8838 55.3447 51.5362 56.3863 50.0779 57.2457C48.6196 58.105 47.0311 58.7821 45.3124 59.2769C43.5937 59.7716 41.8229 60.0125 40 59.9995C38.1641 59.9995 36.3998 59.7586 34.7072 59.2769C33.0145 58.7951 31.426 58.1245 29.9417 57.2652C28.4573 56.4058 27.1032 55.3577 25.8793 54.1207C24.6553 52.8838 23.6137 51.5362 22.7543 50.0779C21.895 48.6196 21.2179 47.0311 20.7231 45.3124C20.2284 43.5937 19.9875 41.8229 20.0005 40C20.0005 38.1641 20.2414 36.3998 20.7231 34.7072C21.2049 33.0145 21.8755 31.426 22.7348 29.9417C23.5942 28.4573 24.6423 27.1032 25.8793 25.8793C27.1162 24.6553 28.4638 23.6137 29.9221 22.7543C31.3804 21.895 32.9689 21.2179 34.6876 20.7231C36.4063 20.2284 38.1771 19.9875 40 20.0005ZM54.8824 30.8401C54.7002 30.5536 54.5179 30.2802 54.3356 30.0198C54.1533 29.7594 53.9645 29.4925 53.7692 29.219C53.7431 29.3362 53.7106 29.4208 53.6715 29.4729C53.6325 29.525 53.6064 29.6422 53.5934 29.8245C53.5934 29.9417 53.639 30.0523 53.7301 30.1565C53.8213 30.2607 53.9385 30.3648 54.0817 30.469C54.2249 30.5732 54.3681 30.6513 54.5114 30.7034C54.6546 30.7554 54.7783 30.801 54.8824 30.8401ZM53.5348 28.9261C53.5348 29.0302 53.5153 29.1018 53.4762 29.1409H53.5934C53.6455 29.1409 53.6846 29.1474 53.7106 29.1604L53.5348 28.9261ZM40 57.4996C41.4843 57.4996 42.9361 57.3108 44.3554 56.9332C45.7746 56.5556 47.1157 56.0217 48.3787 55.3316C49.6417 54.6416 50.8135 53.7952 51.8942 52.7926C52.9749 51.7901 53.9189 50.6703 54.7262 49.4334C54.5569 49.0427 54.3942 48.6456 54.2379 48.242C54.0817 47.8383 54.0036 47.4217 54.0036 46.992C54.0036 46.5233 54.0231 46.1457 54.0621 45.8592C54.1012 45.5728 54.1468 45.3189 54.1989 45.0975C54.2509 44.8762 54.277 44.6874 54.277 44.5311C54.277 44.3749 54.2575 44.1731 54.2184 43.9257C54.1793 43.6783 54.0687 43.4114 53.8864 43.1249C53.7041 42.8385 53.4632 42.4348 53.1637 41.914C53.1768 41.8229 53.1963 41.6992 53.2223 41.5429C53.2484 41.3867 53.2744 41.2239 53.3004 41.0547C53.3265 40.8854 53.333 40.7291 53.32 40.5859C53.307 40.4427 53.2744 40.319 53.2223 40.2148C52.8838 40.1758 52.5322 40.1042 52.1677 40C51.8031 39.8958 51.4776 39.7396 51.1911 39.5313L51.3083 39.4336C51.139 39.4727 50.9698 39.5248 50.8005 39.5899C50.6312 39.655 50.4685 39.7266 50.3122 39.8047C50.156 39.8828 49.9867 39.9349 49.8044 39.9609C49.6222 39.987 49.4464 40.013 49.2771 40.0391L48.9646 40L49.0232 39.8633C48.8409 39.9154 48.6456 39.9805 48.4373 40.0586C48.229 40.1367 48.0271 40.1758 47.8318 40.1758C47.7016 40.1758 47.5128 40.1302 47.2654 40.0391C47.0181 39.9479 46.7707 39.8372 46.5233 39.707C46.2759 39.5768 46.0545 39.4336 45.8592 39.2774C45.6639 39.1211 45.5663 38.9714 45.5663 38.8282L45.6053 38.7696C45.5402 38.6914 45.4556 38.6198 45.3514 38.5547C45.2473 38.4896 45.1496 38.4245 45.0585 38.3594C44.9673 38.2943 44.8827 38.2227 44.8046 38.1446C44.7264 38.0665 44.6939 37.9753 44.7069 37.8711L44.9218 37.6954L44.4725 37.6368L44.3163 37.0509C44.3423 37.116 44.4009 37.142 44.4921 37.129C44.5832 37.116 44.6548 37.0899 44.7069 37.0509L44.0038 36.6798L44.4921 35.4298C44.3098 34.7527 44.2642 34.2319 44.3554 33.8673C44.4465 33.5028 44.6223 33.2033 44.8827 32.9689C45.1431 32.7346 45.4296 32.5002 45.742 32.2658C46.0545 32.0315 46.3735 31.7124 46.6991 31.3088L46.6405 31.0744L47.9295 29.512L48.2225 29.4729C48.587 29.4729 48.9972 29.4599 49.4529 29.4339C49.9086 29.4078 50.3708 29.3622 50.8396 29.2971C51.3083 29.232 51.7705 29.1669 52.2263 29.1018C52.682 29.0367 53.0986 28.9521 53.4762 28.8479C53.0596 28.3532 52.6234 27.8844 52.1677 27.4417C51.7119 26.999 51.2237 26.5759 50.7029 26.1722C50.5596 26.2243 50.3839 26.2959 50.1755 26.3871C49.9672 26.4782 49.7589 26.5954 49.5505 26.7386C49.3422 26.8818 49.1795 27.0381 49.0623 27.2074C48.9451 27.3766 48.8735 27.5524 48.8474 27.7347L48.9646 28.1058C48.7303 28.4834 48.4698 28.7177 48.1834 28.8089C47.8969 28.9 47.604 28.9521 47.3045 28.9651C47.005 28.9781 46.6925 28.9781 46.367 28.9651C46.0415 28.9521 45.729 29.0107 45.4296 29.1409L45.1171 28.4769L45.41 27.3441L45.078 26.8558L48.4568 25.8011C48.3136 25.4366 48.0792 25.1631 47.7537 24.9808C47.4282 24.7986 47.0701 24.7074 46.6795 24.7074V24.5121L47.7732 24.3363C46.5623 23.7374 45.3059 23.2817 44.0038 22.9692C42.7018 22.6567 41.3672 22.5004 40 22.5004C38.8672 22.5004 37.7475 22.6111 36.6407 22.8325C35.534 23.0538 34.4663 23.3728 33.4377 23.7895C32.409 24.2061 31.413 24.7269 30.4495 25.3519C29.4859 25.9769 28.6071 26.68 27.8128 27.4613C28.1513 27.4613 28.4117 27.5459 28.594 27.7152C28.7763 27.8844 28.9456 28.0732 29.1018 28.2815C29.2581 28.4899 29.4208 28.6787 29.5901 28.8479C29.7594 29.0172 29.9872 29.1083 30.2737 29.1214L30.5862 28.887L30.5471 28.4573L31.1916 27.5394L30.6838 26.0941C30.7489 26.055 30.8466 25.9899 30.9768 25.8988C31.107 25.8076 31.2177 25.7621 31.3088 25.7621C31.6994 25.7621 31.9989 25.7816 32.2072 25.8207C32.4156 25.8597 32.5978 25.9313 32.7541 26.0355C32.9103 26.1397 33.047 26.2894 33.1642 26.4847C33.2814 26.68 33.4637 26.9274 33.7111 27.2269L34.4142 26.68C34.5444 26.7321 34.7527 26.8167 35.0392 26.9339C35.3256 27.0511 35.6186 27.1943 35.9181 27.3636C36.2175 27.5329 36.4714 27.7086 36.6798 27.8909C36.8881 28.0732 36.9988 28.2425 37.0118 28.3987C37.0118 28.594 36.9402 28.7503 36.797 28.8675C36.6537 28.9847 36.4649 29.0823 36.2306 29.1604C35.9962 29.2386 35.7553 29.2971 35.5079 29.3362C35.2605 29.3753 35.0131 29.4273 34.7658 29.4925C34.5184 29.5576 34.3296 29.6227 34.1994 29.6878C34.0692 29.7529 33.991 29.8635 33.965 30.0198L35.0978 30.3909C34.8374 30.6122 34.5574 30.814 34.258 30.9963C33.9585 31.1786 33.646 31.3479 33.3205 31.5041L33.3986 31.8361L31.6018 32.5392V33.0861L31.4651 33.1447L31.5627 32.4611L31.4846 32.4416C31.3934 32.4416 31.3414 32.4611 31.3283 32.5002C31.3153 32.5392 31.3088 32.5848 31.3088 32.6369C31.3088 32.689 31.3218 32.7411 31.3479 32.7931C31.3739 32.8452 31.3804 32.8843 31.3674 32.9103L31.1135 32.7736L31.1526 32.8517C31.1526 32.8908 31.1721 32.9494 31.2112 33.0275C31.2502 33.1056 31.3023 33.1773 31.3674 33.2424C31.4325 33.3075 31.4846 33.3726 31.5237 33.4377C31.5627 33.5028 31.5888 33.5353 31.6018 33.5353C31.6018 33.5744 31.5757 33.6134 31.5237 33.6525C31.4716 33.6916 31.4065 33.7176 31.3283 33.7306C31.2502 33.7436 31.1981 33.7632 31.1721 33.7892C31.1461 33.8153 31.1461 33.8218 31.1721 33.8087C31.3544 33.8087 31.3934 33.8218 31.2893 33.8478C31.1851 33.8739 31.0224 33.939 30.801 34.0431C30.5797 34.1473 30.3778 34.297 30.1956 34.4923C30.0133 34.6876 29.9091 34.9741 29.8831 35.3517C29.8831 35.573 29.8896 35.7879 29.9026 35.9962C29.9156 36.2045 29.9091 36.4194 29.8831 36.6407C29.7008 36.1459 29.4273 35.7683 29.0628 35.5079C28.6982 35.2475 28.2555 35.1173 27.7347 35.1173L26.8949 35.1954L27.305 35.4689C27.0837 35.4428 26.8558 35.4168 26.6214 35.3907C26.3871 35.3647 26.1462 35.3582 25.8988 35.3712C25.6514 35.3842 25.4301 35.4363 25.2347 35.5275C25.0394 35.6186 24.8441 35.7553 24.6488 35.9376L24.5316 36.8165C24.5316 37.2331 24.6228 37.5717 24.8051 37.8321C24.9874 38.0925 25.3064 38.2292 25.7621 38.2422C26.1527 38.2422 26.5368 38.1836 26.9144 38.0665C27.292 37.9493 27.6631 37.8126 28.0276 37.6563C27.9105 37.9428 27.7803 38.2162 27.637 38.4766C27.4938 38.737 27.3896 39.0235 27.3245 39.336L27.5784 39.4531C27.8909 39.2448 28.1774 39.2123 28.4378 39.3555C28.6982 39.4987 28.9521 39.707 29.1995 39.9805C29.4469 40.2539 29.7008 40.5338 29.9612 40.8203C30.2216 41.1067 30.5015 41.3151 30.801 41.4453L30.137 41.7968L28.5745 40.9179C28.5875 40.944 28.6005 41.0026 28.6136 41.0937C28.6266 41.1849 28.6201 41.2044 28.594 41.1523L27.8909 39.9609C27.4743 39.9479 27.0316 39.8828 26.5628 39.7656C26.0941 39.6484 25.6188 39.4922 25.1371 39.2969C24.6553 39.1016 24.2061 38.8867 23.7895 38.6524C23.3728 38.418 22.9887 38.1706 22.6372 37.9102L22.5004 40C22.5004 41.5885 22.7153 43.1379 23.145 44.6483C23.5746 46.1587 24.1801 47.5779 24.9613 48.906C25.7425 50.2341 26.6996 51.445 27.8323 52.5387C28.9651 53.6325 30.2216 54.5634 31.6018 55.3316C31.5367 55.0582 31.5302 54.7848 31.5822 54.5114C31.6343 54.2379 31.6994 53.9645 31.7775 53.6911C31.8557 53.4176 31.9403 53.1442 32.0315 52.8708C32.1226 52.5973 32.1682 52.3174 32.1682 52.0309C32.1682 51.6143 32.1031 51.1781 31.9729 50.7224C31.8427 50.2667 31.6864 49.8044 31.5041 49.3357C31.3218 48.867 31.12 48.4047 30.8987 47.949C30.6773 47.4933 30.5015 47.0636 30.3713 46.66C30.2411 46.2564 30.137 45.8788 30.0588 45.5272C29.9807 45.1757 30.0198 44.8697 30.176 44.6093L29.8831 44.4725C29.9612 44.2903 30.0654 44.1145 30.1956 43.9452C30.3258 43.7759 30.4625 43.6067 30.6057 43.4374C30.7489 43.2681 30.8596 43.0859 30.9377 42.8906C31.0159 42.6952 31.0614 42.4999 31.0744 42.3046C31.0744 42.1744 31.0484 42.0377 30.9963 41.8945C30.9442 41.7513 30.8987 41.6145 30.8596 41.4843L31.2698 41.582C31.4911 41.0742 31.7906 40.7291 32.1682 40.5469C32.5458 40.3646 33.021 40.2669 33.5939 40.2539C33.659 40.2539 33.7957 40.2799 34.0041 40.332C34.2124 40.3841 34.4337 40.4557 34.6681 40.5469C34.9025 40.638 35.1238 40.7096 35.3321 40.7617C35.5405 40.8138 35.6967 40.8659 35.8009 40.9179C35.8009 41.0091 35.853 41.0677 35.9571 41.0937C36.0613 41.1198 36.1199 41.1653 36.1329 41.2304L36.0938 41.3867C36.1329 41.3997 36.2241 41.4453 36.3673 41.5234C36.5105 41.6015 36.6667 41.6992 36.836 41.8164C37.0053 41.9335 37.155 42.0377 37.2852 42.1289C37.4154 42.22 37.5066 42.2916 37.5587 42.3437C37.793 42.3437 38.112 42.4218 38.5157 42.5781C38.9193 42.7343 39.362 42.9296 39.8438 43.164C40.3255 43.3984 40.8008 43.6783 41.2695 44.0038C41.7382 44.3293 42.1809 44.6548 42.5976 44.9803C43.0142 45.3059 43.3333 45.6314 43.5546 45.9569C43.7759 46.2824 43.9062 46.5688 43.9452 46.8162L43.2812 47.5193C43.3333 48.1834 43.2877 48.6912 43.1445 49.0427C43.0012 49.3943 42.7799 49.6873 42.4804 49.9216C42.1809 50.156 41.8359 50.3513 41.4453 50.5076C41.0547 50.6638 40.6315 50.8851 40.1758 51.1716C40.1758 51.432 40.1107 51.7119 39.9805 52.0114C39.8503 52.3109 39.6875 52.5973 39.4922 52.8708C39.2969 53.1442 39.0625 53.3721 38.7891 53.5543C38.5157 53.7366 38.2422 53.8278 37.9688 53.8278L37.1485 53.2028C37.1746 53.2288 37.1746 53.2744 37.1485 53.3395C37.1225 53.4046 37.0899 53.4176 37.0509 53.3786C37.1811 53.626 37.2136 53.9124 37.1485 54.2379C37.0834 54.5634 36.9727 54.8955 36.8165 55.234C36.6602 55.5725 36.4845 55.8915 36.2892 56.191C36.0938 56.4905 35.9181 56.7444 35.7618 56.9527C36.4649 57.135 37.168 57.2717 37.8711 57.3629C38.5743 57.454 39.2839 57.4996 40 57.4996Z" fill="#232323"/>
</svg>
