<svg width="220" height="30" viewBox="0 0 220 30" fill="none" xmlns="http://www.w3.org/2000/svg">
<path d="M8.09237 17.9867C7.13242 17.6339 6.27675 17.1374 5.52484 16.4979C4.77293 15.8579 4.17485 15.042 3.73041 14.0491C3.28598 13.0567 3.06376 11.9581 3.06376 10.7538C3.06376 9.35213 3.4066 8.06298 4.0921 6.88686C4.77795 5.71075 5.72588 4.77732 6.9364 4.08569C8.14693 3.39424 9.48473 3.04815 10.9509 3.04815C12.4922 3.04815 13.8822 3.36817 15.1213 4.00765C16.3602 4.64786 17.3366 5.56717 18.0507 6.76704C18.7645 7.9669 19.1217 9.34249 19.1217 10.8952V26.9517L20.1431 27.9678V10.8952C20.1431 9.16373 19.741 7.62082 18.9374 6.26595C18.1334 4.91126 17.034 3.86693 15.639 3.13298C14.2441 2.39903 12.6814 2.03223 10.9509 2.03223C9.71197 2.03223 8.53931 2.26277 7.43289 2.72368C6.32629 3.18495 5.38053 3.80586 4.59577 4.58678C3.81082 5.36752 3.18905 6.29434 2.73043 7.36688C2.27146 8.4396 2.04242 9.56857 2.04242 10.7538C2.04242 12.419 2.45383 13.9246 3.27664 15.2698C4.09928 16.6154 5.19618 17.6547 6.56754 18.3887C7.93872 19.1227 9.44254 19.4896 11.0785 19.4896C12.1187 19.4896 13.1779 19.2871 14.2559 18.8828V17.8526C13.2253 18.2948 12.1756 18.5158 11.1068 18.5158C10.0571 18.5158 9.05232 18.3396 8.09237 17.9867Z" fill="#02EA2C"/>
<path d="M8.09244 20.068C7.11382 19.7768 6.20108 19.3482 5.35475 18.7839C4.50825 18.2196 3.76118 17.549 3.11355 16.7727C2.46557 15.9968 1.95508 15.0888 1.58173 14.0491C1.20765 13.0098 1.02134 11.9113 1.02134 10.7538C1.02134 8.99479 1.45608 7.36919 2.3261 5.87807C3.1963 4.38658 4.39229 3.20369 5.91514 2.3283C7.43781 1.45362 9.11611 1.01611 10.9509 1.01611C12.861 1.01611 14.5917 1.42773 16.1425 2.25097C17.6936 3.07422 18.9181 4.24069 19.8168 5.75092C20.7152 7.26115 21.1643 8.9755 21.1643 10.8952V28.9837L22.1856 30V10.8952C22.1856 9.28587 21.8972 7.79938 21.3203 6.43505C20.7436 5.07125 19.9538 3.92121 18.9513 2.98493C17.949 2.04864 16.7573 1.31737 15.3768 0.790564C13.9961 0.263402 12.5206 0 10.9509 0C9.40923 0 7.95549 0.284474 6.58898 0.85378C5.22229 1.42326 4.05896 2.1899 3.09937 3.15386C2.13942 4.11854 1.38303 5.26179 0.829815 6.58381C0.276426 7.90564 0 9.29551 0 10.7538C0 12.0236 0.198347 13.2285 0.595572 14.3669C0.9928 15.505 1.54116 16.5002 2.2412 17.3517C2.9407 18.2031 3.75185 18.9417 4.67392 19.5669C5.596 20.193 6.59831 20.6656 7.68139 20.9856C8.76394 21.3052 9.87754 21.4652 11.0218 21.4652C12.1281 21.4652 13.2063 21.282 14.256 20.9149V19.8707C13.2535 20.2941 12.1945 20.5056 11.0786 20.5056C10.0665 20.5056 9.07142 20.3598 8.09244 20.068Z" fill="#02EA2C"/>
<path d="M8.91547 16.2225C8.20143 15.9827 7.55578 15.6321 6.97906 15.1709C6.40198 14.7099 5.94569 14.0989 5.61021 13.3365C5.27437 12.5743 5.10654 11.7132 5.10654 10.7537C5.10654 9.17332 5.6646 7.8322 6.78054 6.73198C7.89611 5.63105 9.28631 5.08032 10.951 5.08032C12.7477 5.08032 14.2184 5.60498 15.3626 6.65394C16.5068 7.70327 17.079 9.11689 17.079 10.8952V24.9191L18.1002 25.9353V10.8952C18.1002 9.53065 17.7882 8.32633 17.1642 7.282C16.54 6.23768 15.6888 5.44051 14.6107 4.88977C13.5325 4.33958 12.3126 4.06421 10.951 4.06421C9.0124 4.06421 7.3831 4.7162 6.06416 6.01892C4.74468 7.32218 4.08521 8.90027 4.08521 10.7537C4.08521 11.8456 4.27888 12.8304 4.66696 13.7103C5.05449 14.5901 5.57934 15.3053 6.2415 15.8555C6.90331 16.4057 7.65522 16.8247 8.49688 17.1113C9.33855 17.3986 10.2274 17.5422 11.1637 17.5422C12.2039 17.5422 13.2349 17.3302 14.256 16.9066V15.8346C13.2819 16.3334 12.2561 16.5822 11.178 16.5822C10.3834 16.5822 9.62933 16.4622 8.91547 16.2225Z" fill="#02EA2C"/>
<path d="M10.05 14.5358C9.65758 14.4516 9.28172 14.3124 8.92255 14.1198C8.56302 13.9269 8.25321 13.6821 7.99311 13.3858C7.73302 13.0895 7.52713 12.7181 7.376 12.2708C7.22486 11.8241 7.1493 11.3186 7.1493 10.7537C7.1493 9.75692 7.52265 8.90028 8.26971 8.18508C9.01678 7.47023 9.9105 7.1129 10.9509 7.1129C12.1802 7.1129 13.1684 7.44202 13.9154 8.10079C14.6627 8.75957 15.0364 9.69067 15.0364 10.8952V22.887L16.0576 23.9031V10.8952C16.0576 9.39905 15.5869 8.22508 14.6462 7.37362C13.7051 6.5227 12.4734 6.09644 10.9509 6.09644C9.56999 6.09644 8.42085 6.54806 7.5038 7.45166C6.58621 8.35473 6.12796 9.45548 6.12796 10.7537C6.12796 11.5911 6.27191 12.3324 6.56036 12.9763C6.84882 13.621 7.23905 14.1292 7.73069 14.5008C8.22233 14.8723 8.76836 15.15 9.36914 15.3332C9.96955 15.5168 10.6104 15.6086 11.2912 15.6086C12.3504 15.6086 13.3387 15.3687 14.2559 14.8887V13.8726C13.3671 14.3996 12.3836 14.663 11.3054 14.663C10.8608 14.663 10.4423 14.6207 10.05 14.5358Z" fill="#02EA2C"/>
<path d="M23.3166 8.10079C24.0636 7.44202 25.0518 7.1129 26.2811 7.1129C27.3215 7.1129 28.2152 7.47023 28.9623 8.18508C29.7093 8.90028 30.0827 9.75692 30.0827 10.7537C30.0827 11.3186 30.0071 11.8241 29.856 12.2708C29.7048 12.7181 29.499 13.0895 29.2387 13.3858C28.9788 13.6821 28.669 13.9269 28.3094 14.1198C27.9503 14.3124 27.5744 14.4516 27.182 14.5358C26.7896 14.6207 26.3712 14.6632 25.9266 14.6632C24.8809 14.6632 23.9263 14.4099 23.0586 13.9144V14.9259C23.953 15.378 24.9128 15.6086 25.9408 15.6086C26.6216 15.6086 27.2624 15.5168 27.8629 15.3332C28.4636 15.15 29.0097 14.8723 29.5013 14.5008C29.9929 14.1292 30.3832 13.621 30.6716 12.9763C30.9601 12.3324 31.104 11.5911 31.104 10.7537C31.104 9.45548 30.6458 8.35473 29.7282 7.45166C28.8111 6.54806 27.662 6.09644 26.2811 6.09644C24.7586 6.09644 23.5269 6.5227 22.5858 7.37362C22.5811 7.37791 22.5774 7.38273 22.5727 7.38702C22.6876 7.78596 22.7806 8.19437 22.8542 8.61081C22.9884 8.42616 23.1412 8.25526 23.3166 8.10079Z" fill="#02EA2C"/>
<path d="M28.7353 17.1113C29.5769 16.8247 30.3288 16.4057 30.9906 15.8555C31.6528 15.3053 32.1776 14.5901 32.5652 13.7103C32.9533 12.8304 33.1469 11.8456 33.1469 10.7537C33.1469 8.90027 32.4875 7.32218 31.168 6.01892C29.849 4.7162 28.2197 4.06421 26.2812 4.06421C24.9195 4.06421 23.6995 4.33958 22.6214 4.88977C22.326 5.04067 22.0513 5.21407 21.79 5.40211C21.9049 5.63141 22.0233 5.85731 22.1253 6.09803C22.1615 6.18411 22.1867 6.27536 22.2209 6.36233C23.3101 5.51051 24.6619 5.08032 26.2812 5.08032C27.9458 5.08032 29.336 5.63105 30.4516 6.73198C31.5675 7.8322 32.1256 9.17332 32.1256 10.7537C32.1256 11.7132 31.9578 12.5743 31.6219 13.3365C31.2864 14.0989 30.8302 14.7099 30.2531 15.1709C29.6765 15.6321 29.0307 15.9827 28.3167 16.2225C27.6028 16.4622 26.8487 16.5822 26.0541 16.5822C25.0062 16.5822 24.0086 16.3423 23.0587 15.8711V16.9366C24.0531 17.3375 25.0563 17.5422 26.0685 17.5422C27.0047 17.5422 27.8936 17.3986 28.7353 17.1113Z" fill="#02EA2C"/>
<path d="M30.6644 18.3887C32.0358 17.6547 33.1327 16.6154 33.9553 15.2698C34.7779 13.9246 35.1895 12.419 35.1895 10.7538C35.1895 9.56857 34.9605 8.4396 34.5015 7.36688C34.0429 6.29434 33.4211 5.36752 32.6362 4.58678C31.8514 3.80586 30.9056 3.18512 29.799 2.72368C28.6926 2.26277 27.52 2.03223 26.2811 2.03223C24.5506 2.03223 22.9879 2.39903 21.593 3.13298C21.2846 3.29531 20.9963 3.47871 20.7169 3.67121C20.9188 3.93819 21.1091 4.21623 21.2882 4.50535C21.549 4.32534 21.8211 4.1573 22.1107 4.00765C23.3497 3.36817 24.7397 3.04815 26.2811 3.04815C27.7472 3.04815 29.085 3.39424 30.2955 4.08569C31.5061 4.77732 32.454 5.71075 33.1398 6.88686C33.8253 8.06298 34.1682 9.35213 34.1682 10.7538C34.1682 11.9581 33.946 13.0567 33.5015 14.0491C33.0571 15.042 32.459 15.8579 31.7071 16.4979C30.9552 17.1374 30.0995 17.6339 29.1396 17.9867C28.1796 18.3396 27.1748 18.5159 26.1251 18.5159C25.0849 18.5159 24.0629 18.3025 23.0586 17.8835V18.9102C24.1083 19.2939 25.1398 19.4896 26.1535 19.4896C27.7894 19.4896 29.2932 19.1227 30.6644 18.3887Z" fill="#02EA2C"/>
<path d="M36.4022 6.58381C35.849 5.2618 35.0926 4.11854 34.1326 3.15386C33.173 2.1899 32.0097 1.42326 30.643 0.85378C29.2765 0.284474 27.8228 0 26.2811 0C24.7114 0 23.2359 0.263402 21.8552 0.790564C20.9186 1.14808 20.076 1.60738 19.3134 2.15311C19.3902 2.22097 19.4742 2.28187 19.5489 2.35151C19.7291 2.51991 19.8938 2.7051 20.0619 2.88671C20.388 2.65742 20.728 2.44294 21.0893 2.25097C22.6403 1.42773 24.371 1.01611 26.2811 1.01611C28.1159 1.01611 29.7942 1.45362 31.3169 2.32848C32.8397 3.20369 34.0357 4.38658 34.9057 5.87807C35.7759 7.36919 36.2107 8.99479 36.2107 10.7538C36.2107 11.9113 36.0243 13.0098 35.6503 14.0491C35.2769 15.0888 34.7664 15.9968 34.1184 16.7727C33.4708 17.549 32.7238 18.2196 31.8772 18.7839C31.0309 19.3482 30.1182 19.7768 29.1396 20.068C28.1606 20.3598 27.1655 20.5056 26.1535 20.5056C25.0679 20.5056 24.037 20.3016 23.0586 19.9007V20.9402C24.0824 21.2881 25.1327 21.4652 26.2102 21.4652C27.3545 21.4652 28.4681 21.3052 29.5506 20.9856C30.6337 20.6656 31.636 20.193 32.5581 19.567C33.4802 18.9417 34.2913 18.2032 34.9908 17.3517C35.6907 16.5002 36.2392 15.505 36.6364 14.3669C37.0337 13.2285 37.232 12.0236 37.232 10.7538C37.232 9.29551 36.9556 7.90564 36.4022 6.58381Z" fill="#02EA2C"/>
<path d="M11.0929 12.6805C10.0782 12.6805 9.25579 11.862 9.25579 10.8524C9.25579 9.84287 10.0782 9.02445 11.0929 9.02445C12.1078 9.02445 12.9304 9.84287 12.9304 10.8524C12.9304 11.862 12.1078 12.6805 11.0929 12.6805ZM11.0929 8.11816C9.57512 8.11816 8.34467 9.34232 8.34467 10.8524C8.34467 12.3626 9.57512 13.5868 11.0929 13.5868C12.611 13.5868 13.8414 12.3626 13.8414 10.8524C13.8414 9.34232 12.611 8.11816 11.0929 8.11816Z" fill="#02EA2C"/>
<path d="M26.1393 12.6805C25.1245 12.6805 24.3018 11.862 24.3018 10.8524C24.3018 9.84287 25.1245 9.02445 26.1393 9.02445C27.154 9.02445 27.9765 9.84287 27.9765 10.8524C27.9765 11.862 27.154 12.6805 26.1393 12.6805ZM26.1393 8.11816C24.6213 8.11816 23.3909 9.34232 23.3909 10.8524C23.3909 12.3626 24.6213 13.5868 26.1393 13.5868C27.6572 13.5868 28.8876 12.3626 28.8876 10.8524C28.8876 9.34232 27.6572 8.11816 26.1393 8.11816Z" fill="#02EA2C"/>
<path d="M209.566 18.5564C210.183 18.5564 210.654 18.5564 210.979 18.5564C211.322 18.5564 211.562 18.5564 211.699 18.5564C212.556 18.5564 213.318 18.4879 213.986 18.351C214.654 18.1969 215.228 17.9401 215.708 17.5807C216.205 17.2041 216.573 16.6819 216.813 16.0143C217.07 15.3467 217.199 14.4908 217.199 13.4466C217.199 12.351 216.976 11.4437 216.531 10.7247C216.085 9.98865 215.451 9.44086 214.629 9.08137C213.806 8.70477 212.83 8.51646 211.699 8.51646H209.566V18.5564ZM220 13.4722C220 15.3724 219.623 16.8531 218.869 17.9145C218.132 18.9587 217.087 19.6862 215.734 20.0971C214.38 20.5079 212.787 20.7133 210.954 20.7133C210.68 20.7133 210.234 20.7133 209.617 20.7133C209 20.7133 208.118 20.7133 206.97 20.7133V6.25684C208.187 6.25684 209.086 6.25684 209.669 6.25684C210.268 6.25684 210.697 6.25684 210.954 6.25684C212.787 6.25684 214.38 6.53073 215.734 7.07852C217.087 7.60919 218.132 8.4052 218.869 9.46654C219.623 10.5279 220 11.8631 220 13.4722Z" fill="#02EA2C"/>
<path d="M199.265 6.71903V20.7133H196.643V6.71903H199.265ZM192.377 8.51646V6.25684H203.556V8.51646H192.377Z" fill="#02EA2C"/>
<path d="M182.44 20.5849V6.25684H185.062V20.5849H182.44ZM182.44 20.7133V18.4794H192.206V20.7133H182.44Z" fill="#02EA2C"/>
<path d="M172.374 20.9957C171.569 20.9957 170.789 20.9016 170.035 20.7133C169.281 20.5421 168.596 20.2511 167.979 19.8402C167.38 19.4294 166.891 18.9073 166.514 18.2739C166.155 17.6405 165.966 16.8702 165.949 15.9629H168.596C168.596 16.0314 168.613 16.1683 168.648 16.3738C168.682 16.5621 168.767 16.7846 168.904 17.0414C169.059 17.2981 169.273 17.5464 169.547 17.786C169.838 18.0257 170.224 18.2311 170.703 18.4023C171.2 18.5563 171.817 18.6334 172.554 18.6334C173.068 18.6334 173.505 18.582 173.865 18.4793C174.241 18.3766 174.55 18.2397 174.79 18.0685C175.047 17.8973 175.235 17.709 175.355 17.5036C175.475 17.281 175.535 17.067 175.535 16.8616C175.535 16.3823 175.364 16.0057 175.021 15.7318C174.696 15.4408 174.25 15.2097 173.685 15.0385C173.136 14.8502 172.528 14.6876 171.86 14.5506C171.209 14.3966 170.549 14.2168 169.881 14.0114C169.23 13.806 168.63 13.5407 168.082 13.2154C167.534 12.873 167.106 12.4365 166.797 11.9058C166.506 11.3752 166.377 10.699 166.412 9.87732C166.48 9.07275 166.763 8.37946 167.26 7.79743C167.757 7.21541 168.45 6.77033 169.341 6.4622C170.232 6.15407 171.269 6 172.451 6C173.479 6 174.43 6.1883 175.304 6.56491C176.195 6.92439 176.906 7.47218 177.437 8.20827C177.985 8.92725 178.259 9.85164 178.259 10.9815H175.715C175.715 10.4508 175.595 10.0228 175.355 9.69757C175.115 9.35521 174.807 9.09843 174.43 8.92725C174.07 8.73894 173.685 8.61911 173.273 8.56776C172.862 8.49929 172.494 8.46505 172.168 8.46505C171.312 8.46505 170.601 8.61056 170.035 8.90157C169.487 9.17546 169.213 9.60342 169.213 10.1854C169.196 10.6819 169.359 11.0756 169.701 11.3666C170.044 11.6405 170.498 11.8631 171.063 12.0342C171.629 12.2054 172.245 12.368 172.914 12.5221C173.582 12.6591 174.25 12.8217 174.918 13.01C175.586 13.1983 176.186 13.4551 176.717 13.7803C177.265 14.1056 177.694 14.5335 178.002 15.0642C178.328 15.5949 178.465 16.2882 178.413 17.1441C178.379 17.9486 178.096 18.6419 177.565 19.224C177.034 19.7889 176.323 20.2254 175.432 20.5335C174.558 20.8417 173.539 20.9957 172.374 20.9957Z" fill="#232323"/>
<path d="M156.834 20.9957C156.028 20.9957 155.249 20.9016 154.495 20.7133C153.741 20.5421 153.056 20.2511 152.439 19.8402C151.839 19.4294 151.351 18.9073 150.974 18.2739C150.614 17.6405 150.426 16.8702 150.409 15.9629H153.056C153.056 16.0314 153.073 16.1683 153.107 16.3738C153.141 16.5621 153.227 16.7846 153.364 17.0414C153.518 17.2981 153.732 17.5464 154.007 17.786C154.298 18.0257 154.683 18.2311 155.163 18.4023C155.66 18.5563 156.277 18.6334 157.013 18.6334C157.527 18.6334 157.964 18.582 158.324 18.4793C158.701 18.3766 159.009 18.2397 159.249 18.0685C159.506 17.8973 159.695 17.709 159.815 17.5036C159.935 17.281 159.995 17.067 159.995 16.8616C159.995 16.3823 159.823 16.0057 159.481 15.7318C159.155 15.4408 158.71 15.2097 158.144 15.0385C157.596 14.8502 156.988 14.6876 156.32 14.5506C155.669 14.3966 155.009 14.2168 154.341 14.0114C153.69 13.806 153.09 13.5407 152.542 13.2154C151.993 12.873 151.565 12.4365 151.257 11.9058C150.965 11.3752 150.837 10.699 150.871 9.87732C150.94 9.07275 151.222 8.37946 151.719 7.79743C152.216 7.21541 152.91 6.77033 153.801 6.4622C154.692 6.15407 155.728 6 156.911 6C157.939 6 158.89 6.1883 159.763 6.56491C160.654 6.92439 161.365 7.47218 161.896 8.20827C162.445 8.92725 162.719 9.85164 162.719 10.9815H160.175C160.175 10.4508 160.055 10.0228 159.815 9.69757C159.575 9.35521 159.266 9.09843 158.89 8.92725C158.53 8.73894 158.144 8.61911 157.733 8.56776C157.322 8.49929 156.953 8.46505 156.628 8.46505C155.771 8.46505 155.06 8.61056 154.495 8.90157C153.947 9.17546 153.672 9.60342 153.672 10.1854C153.655 10.6819 153.818 11.0756 154.161 11.3666C154.503 11.6405 154.957 11.8631 155.523 12.0342C156.088 12.2054 156.705 12.368 157.373 12.5221C158.041 12.6591 158.71 12.8217 159.378 13.01C160.046 13.1983 160.646 13.4551 161.177 13.7803C161.725 14.1056 162.153 14.5335 162.462 15.0642C162.787 15.5949 162.924 16.2882 162.873 17.1441C162.839 17.9486 162.556 18.6419 162.025 19.224C161.494 19.7889 160.783 20.2254 159.892 20.5335C159.018 20.8417 157.999 20.9957 156.834 20.9957Z" fill="#232323"/>
<path d="M134.387 20.7133L139.013 6.25684H143.305L148.06 20.7133H145.258L141.198 7.36097L137.163 20.7133H134.387ZM137.497 16.6306L137.523 14.6021H144.847L144.873 16.6306H137.497Z" fill="#232323"/>
<path d="M124.252 20.7133H121.631V6.25684H124.252V20.7133ZM123.867 6.25684H127.439C129.049 6.25684 130.3 6.65912 131.191 7.46368C132.082 8.26825 132.527 9.48365 132.527 11.1099C132.527 12.5307 132.065 13.6434 131.14 14.448C130.232 15.2526 128.998 15.6548 127.439 15.6548H123.867V13.729H127.079C128.004 13.729 128.75 13.5065 129.315 13.0614C129.88 12.6163 130.163 11.9487 130.163 11.0585C130.163 10.1513 129.88 9.48366 129.315 9.0557C128.767 8.61062 128.021 8.38808 127.079 8.38808H123.867V6.25684Z" fill="#232323"/>
<path d="M108.212 16.117V13.1898L114.714 6.25684H118.132V6.56497L108.212 16.117ZM105.694 20.7133V6.25684H108.315V20.7133H105.694ZM115.434 20.7133L109.986 13.2155L111.887 11.3667L118.441 20.4052V20.7133H115.434Z" fill="#232323"/>
<path d="M95.0139 20.97C93.6604 20.97 92.4354 20.6961 91.3388 20.1484C90.2423 19.5835 89.3685 18.7532 88.7175 17.6576C88.0835 16.5621 87.7666 15.1926 87.7666 13.5492C87.7837 11.9401 88.1092 10.5706 88.7432 9.4408C89.3771 8.31098 90.2423 7.45506 91.3388 6.87304C92.4525 6.29101 93.7032 6 95.091 6C96.4274 6 97.5667 6.23966 98.5091 6.71897C99.4514 7.19829 100.205 7.84879 100.771 8.67047C101.353 9.49215 101.73 10.4165 101.901 11.4437H99.203C99.083 10.6904 98.8003 10.0999 98.3549 9.6719C97.9265 9.22682 97.4211 8.91869 96.8386 8.7475C96.2561 8.5592 95.6735 8.46505 95.091 8.46505C93.5661 8.46505 92.3925 8.89301 91.5701 9.74893C90.7649 10.6048 90.3623 11.8117 90.3623 13.3695C90.3623 15.03 90.7563 16.3053 91.5444 17.1954C92.3497 18.0856 93.5147 18.5307 95.0396 18.5307C95.6735 18.5307 96.2903 18.4365 96.89 18.2482C97.4896 18.0428 98.0036 17.7175 98.432 17.2725C98.8603 16.8103 99.1344 16.194 99.2543 15.4237H101.979C101.79 16.4679 101.413 17.418 100.848 18.2739C100.282 19.1127 99.5113 19.7718 98.5348 20.2511C97.5753 20.7304 96.4017 20.97 95.0139 20.97Z" fill="#232323"/>
<path d="M79.7757 20.2511V6.71903H82.3714V20.2511H79.7757ZM77.8225 20.7133V18.4794H84.2732V20.7133H77.8225ZM77.8225 8.51646V6.25684H84.2732V8.51646H77.8225Z" fill="#232323"/>
<path d="M67.3699 21.0728C65.331 21.0728 63.7719 20.5079 62.6925 19.3781C61.6131 18.2312 61.0735 16.622 61.0735 14.5507V6.25684H63.8747V14.525C63.8747 15.3296 63.969 15.9972 64.1574 16.5279C64.363 17.0414 64.6286 17.4523 64.9541 17.7604C65.2968 18.0514 65.6737 18.2654 66.0849 18.4023C66.5132 18.5222 66.9416 18.5821 67.3699 18.5821C68.0209 18.5821 68.612 18.4708 69.1432 18.2483C69.6743 18.0086 70.0941 17.5978 70.4024 17.0158C70.728 16.4166 70.8907 15.5864 70.8907 14.525V6.25684H73.6663V14.5507C73.6663 16.6563 73.1352 18.274 72.0729 19.4038C71.0278 20.5165 69.4601 21.0728 67.3699 21.0728Z" fill="#232323"/>
<path d="M50.4587 21.0728C48.1115 21.0728 46.3211 20.3966 45.0875 19.0442C43.8539 17.6748 43.2371 15.8345 43.2371 13.5235C43.2371 12.0171 43.5027 10.699 44.0338 9.56919C44.5649 8.43937 45.3616 7.56633 46.4239 6.95007C47.5033 6.31669 48.8482 6 50.4587 6C52.035 6 53.3542 6.31669 54.4165 6.95007C55.4959 7.56633 56.3011 8.43937 56.8323 9.56919C57.3805 10.6819 57.6547 11.9914 57.6547 13.4979C57.6547 15.0043 57.3805 16.331 56.8323 17.4779C56.3011 18.6077 55.4959 19.4893 54.4165 20.1227C53.3542 20.7561 52.035 21.0728 50.4587 21.0728ZM52.3091 24C51.9836 24 51.6495 23.9743 51.3068 23.923C50.9642 23.8716 50.6472 23.7432 50.3559 23.5378C50.0647 23.3324 49.8248 22.99 49.6363 22.5107C49.465 22.0485 49.3793 21.398 49.3793 20.5592V19.4551H51.8722V20.3795C51.8722 20.7732 51.8808 21.0899 51.8979 21.3295C51.9151 21.5692 52.0093 21.7404 52.1806 21.8431C52.3519 21.9458 52.6432 21.9971 53.0544 21.9971C53.1401 21.9971 53.3114 21.9543 53.5684 21.8688C53.8425 21.8003 54.091 21.766 54.3137 21.766L54.3394 23.7432C54.3051 23.7432 54.1852 23.7518 53.9796 23.7689C53.7911 23.8031 53.577 23.8374 53.3371 23.8716C53.0972 23.9058 52.8745 23.9315 52.6689 23.9486C52.4633 23.9829 52.3434 24 52.3091 24ZM50.433 18.505C51.9579 18.505 53.0972 18.0428 53.8511 17.1184C54.605 16.194 54.9819 14.97 54.9819 13.4465C54.9819 11.9058 54.605 10.6733 53.8511 9.74893C53.1144 8.82454 51.975 8.36234 50.433 8.36234C48.9425 8.36234 47.8117 8.80742 47.0407 9.69757C46.2697 10.5877 45.8842 11.8288 45.8842 13.4208C45.8842 14.9615 46.2611 16.194 47.015 17.1184C47.7688 18.0428 48.9082 18.505 50.433 18.505Z" fill="#232323"/>
</svg>
