<svg width="165" height="50" viewBox="0 0 165 50" fill="none" xmlns="http://www.w3.org/2000/svg">
<path d="M146.865 38.1492C147.338 38.9717 148.429 39.1817 149.113 38.5267C153.009 34.7941 155.438 29.5253 155.438 23.6852C155.438 17.8576 153.019 12.5975 149.136 8.86613C148.453 8.20987 147.359 8.41862 146.886 9.24238L146.069 10.6674C145.7 11.3087 145.84 12.1174 146.354 12.6487C149.111 15.5 150.809 19.3938 150.809 23.6852C150.809 27.9877 149.103 31.8891 146.335 34.7429C145.82 35.2729 145.679 36.0829 146.048 36.7254L146.865 38.1492Z" fill="#51A2FF"/>
<path d="M151.728 46.6221C152.185 47.4196 153.229 47.6459 153.938 47.0659C160.69 41.5445 165.004 33.1219 165.004 23.6854C165.004 14.2615 160.7 5.84758 153.963 0.326223C153.253 -0.255539 152.208 -0.0292881 151.75 0.767477L150.959 2.14626C150.569 2.82502 150.748 3.68628 151.345 4.19129C156.866 8.86138 160.375 15.8615 160.375 23.6854C160.375 31.5206 156.858 38.5282 151.324 43.1983C150.726 43.7033 150.546 44.5646 150.936 45.2446L151.728 46.6221Z" fill="#51A2FF"/>
<path d="M106.255 16.4151C106.791 15.4764 107.548 14.7501 108.526 14.2338C109.505 13.6951 110.658 13.4251 111.987 13.4251C113.547 13.4251 114.957 13.8363 116.214 14.6563C117.495 15.4763 118.497 16.6489 119.219 18.1727C119.964 19.6964 120.338 21.479 120.338 23.519C120.338 25.5578 119.964 27.3516 119.219 28.8991C118.497 30.4229 117.495 31.5954 116.214 32.4167C114.957 33.2367 113.547 33.6467 111.987 33.6467C110.658 33.6467 109.505 33.3892 108.526 32.8729C107.548 32.3342 106.791 31.5954 106.255 30.6579V33.4004H99.4062V7.37619H106.255V16.4151ZM113.384 23.519C113.384 22.229 113.034 21.2327 112.335 20.5289C111.66 19.8027 110.821 19.4389 109.819 19.4389C108.818 19.4389 107.968 19.8027 107.269 20.5289C106.593 21.2565 106.255 22.2527 106.255 23.519C106.255 24.8078 106.593 25.8165 107.269 26.5428C107.968 27.2703 108.818 27.6328 109.819 27.6328C110.821 27.6328 111.66 27.2703 112.335 26.5428C113.034 25.7928 113.384 24.7853 113.384 23.519Z" fill="url(#paint0_linear_4005_927)"/>
<path d="M92.01 11.8425C90.7975 11.8425 89.82 11.515 89.0737 10.8575C88.3525 10.1788 87.9912 9.33375 87.9912 8.32623C87.9912 7.29496 88.3525 6.43869 89.0737 5.75868C89.82 5.07867 90.7975 4.73866 92.01 4.73866C93.1976 4.73866 94.1526 5.07867 94.8751 5.75868C95.6201 6.43869 95.9926 7.29496 95.9926 8.32623C95.9926 9.33375 95.6201 10.1788 94.8751 10.8575C94.1526 11.515 93.1976 11.8425 92.01 11.8425ZM95.3989 13.6713V33.4005H88.55V13.6713H95.3989Z" fill="url(#paint1_linear_4005_927)"/>
<path d="M75.9827 33.6465C74.2126 33.6465 72.6288 33.354 71.2313 32.7678C69.8563 32.1578 68.7613 31.3377 67.9463 30.3065C67.1537 29.2515 66.7112 28.0664 66.6187 26.7539H73.2576C73.3514 27.3864 73.6426 27.8789 74.1314 28.2314C74.6201 28.5827 75.2264 28.7589 75.9477 28.7589C76.5077 28.7589 76.9502 28.6414 77.2765 28.4064C77.6027 28.1727 77.7652 27.8677 77.7652 27.4927C77.7652 27.0002 77.4977 26.6364 76.9614 26.4027C76.4264 26.1676 75.5402 25.9101 74.3064 25.6289C72.9089 25.3476 71.7438 25.0301 70.8113 24.6789C69.88 24.3276 69.065 23.7526 68.365 22.9563C67.69 22.1588 67.3525 21.08 67.3525 19.72C67.3525 18.5475 67.6662 17.4925 68.2963 16.555C68.925 15.5937 69.845 14.8324 71.0563 14.2687C72.2913 13.7062 73.7701 13.4249 75.4939 13.4249C78.0565 13.4249 80.0715 14.0587 81.539 15.3249C83.0066 16.59 83.8566 18.255 84.0903 20.3188H77.9052C77.789 19.685 77.5089 19.205 77.0664 18.8763C76.6477 18.525 76.0764 18.3487 75.3539 18.3487C74.7951 18.3487 74.3639 18.4537 74.0614 18.665C73.7814 18.8763 73.6426 19.1688 73.6426 19.545C73.6426 20.0138 73.9101 20.3763 74.4451 20.635C74.9814 20.8688 75.8439 21.115 77.0314 21.3738C78.4527 21.6776 79.629 22.0176 80.5603 22.3926C81.5153 22.7688 82.3428 23.3776 83.0416 24.2214C83.7641 25.0426 84.1253 26.1676 84.1253 27.5977C84.1253 28.7464 83.7866 29.779 83.1116 30.6927C82.4591 31.6078 81.5153 32.334 80.2815 32.8728C79.0702 33.389 77.6377 33.6465 75.9827 33.6465Z" fill="url(#paint2_linear_4005_927)"/>
<path d="M55.442 13.4962C57.7021 13.4962 59.4959 14.2574 60.8234 15.7812C62.1509 17.2825 62.8147 19.3213 62.8147 21.9013V33.4003H55.9658V22.8151C55.9658 21.6901 55.6746 20.81 55.0933 20.1775C54.5108 19.5213 53.7295 19.1925 52.752 19.1925C51.727 19.1925 50.9232 19.5213 50.3407 20.1775C49.7582 20.81 49.4669 21.6901 49.4669 22.8151V33.4003H42.618V13.6712H49.4669V16.485C50.0719 15.5937 50.8882 14.8787 51.9132 14.3399C52.9382 13.7774 54.1145 13.4962 55.442 13.4962Z" fill="url(#paint3_linear_4005_927)"/>
<path d="M39.7091 23.3076C39.7091 23.8464 39.6741 24.3864 39.6041 24.9251H26.6401C26.7101 26.0039 27.0014 26.8127 27.5139 27.3514C28.0502 27.8677 28.7252 28.1252 29.5402 28.1252C30.6815 28.1252 31.4977 27.6102 31.9865 26.5777H39.2891C38.9866 27.9377 38.3929 29.1577 37.5078 30.2352C36.6453 31.2902 35.5503 32.1228 34.2228 32.7328C32.8953 33.3415 31.4277 33.6465 29.8202 33.6465C27.8864 33.6465 26.1626 33.2365 24.6488 32.4165C23.1575 31.5952 21.9813 30.4227 21.1187 28.899C20.28 27.3752 19.8612 25.5814 19.8612 23.5188C19.8612 21.4551 20.28 19.6738 21.1187 18.1725C21.9575 16.6487 23.1225 15.4762 24.6138 14.6562C26.1276 13.8362 27.8626 13.4249 29.8202 13.4249C31.754 13.4249 33.4653 13.8237 34.9565 14.6212C36.4478 15.4187 37.6129 16.5675 38.4504 18.0675C39.2891 19.545 39.7091 21.2913 39.7091 23.3076ZM32.7203 21.5838C32.7203 20.74 32.4402 20.0838 31.8815 19.615C31.3227 19.1225 30.624 18.8763 29.7852 18.8763C28.9464 18.8763 28.2589 19.1113 27.7239 19.58C27.1876 20.025 26.8376 20.6938 26.6751 21.5838H32.7203Z" fill="url(#paint4_linear_4005_927)"/>
<path d="M9.3652 33.6465C7.59391 33.6465 6.01013 33.354 4.6126 32.7678C3.23757 32.1578 2.14379 31.3377 1.32752 30.3065C0.536257 29.2515 0.093752 28.0664 0 26.7539H6.63889C6.73264 27.3864 7.0239 27.8789 7.51266 28.2314C8.00142 28.5827 8.60768 28.7589 9.33019 28.7589C9.88896 28.7589 10.3315 28.6414 10.6577 28.4064C10.984 28.1727 11.1465 27.8677 11.1465 27.4927C11.1465 27.0002 10.879 26.6364 10.3427 26.4027C9.80771 26.1676 8.92269 25.9101 7.68767 25.6289C6.29014 25.3476 5.1251 25.0301 4.19258 24.6789C3.26131 24.3276 2.44631 23.7526 1.74754 22.9563C1.07128 22.1588 0.733763 21.08 0.733763 19.72C0.733763 18.5475 1.04878 17.4925 1.67754 16.555C2.3063 15.5937 3.22632 14.8324 4.4376 14.2687C5.67262 13.7062 7.1514 13.4249 8.87519 13.4249C11.4377 13.4249 13.4528 14.0587 14.9203 15.3249C16.3878 16.59 17.2391 18.255 17.4716 20.3188H11.2865C11.1702 19.685 10.8902 19.205 10.4477 18.8763C10.029 18.525 9.4577 18.3487 8.73518 18.3487C8.17642 18.3487 7.74517 18.4537 7.44266 18.665C7.16391 18.8763 7.0239 19.1688 7.0239 19.545C7.0239 20.0138 7.29141 20.3763 7.82767 20.635C8.36268 20.8688 9.2252 21.115 10.4127 21.3738C11.834 21.6776 13.0103 22.0176 13.9428 22.3926C14.8978 22.7688 15.7241 23.3776 16.4228 24.2214C17.1454 25.0426 17.5066 26.1676 17.5066 27.5977C17.5066 28.7464 17.1691 29.779 16.4929 30.6927C15.8403 31.6078 14.8978 32.334 13.6628 32.8728C12.4515 33.389 11.019 33.6465 9.3652 33.6465Z" fill="url(#paint5_linear_4005_927)"/>
<path fill-rule="evenodd" clip-rule="evenodd" d="M133.27 33.7753C138.92 33.7753 143.501 29.2089 143.501 23.5776C143.501 17.9462 138.92 13.3799 133.27 13.3799C127.62 13.3799 123.038 17.9462 123.038 23.5776C123.038 29.2089 127.62 33.7753 133.27 33.7753ZM131.388 28.1877L137.81 24.6601C138.665 24.1901 138.665 22.9651 137.81 22.4951L131.388 18.9675C130.561 18.5137 129.55 19.11 129.55 20.05V27.1051C129.55 28.0452 130.561 28.6414 131.388 28.1877Z" fill="url(#paint6_linear_4005_927)"/>
<path d="M135.904 40.2311C136.944 40.2311 137.857 40.4323 138.64 40.8336C139.434 41.2336 140.044 41.8086 140.469 42.5549C140.904 43.2911 141.122 44.1499 141.122 45.1299C141.122 46.1087 140.904 46.9675 140.469 47.705C140.044 48.4325 139.434 48.9975 138.64 49.3987C137.857 49.8 136.944 50 135.904 50H132.445V40.2311H135.904ZM135.834 48.335C136.873 48.335 137.677 48.055 138.244 47.495C138.81 46.935 139.094 46.1462 139.094 45.1299C139.094 44.1124 138.81 43.3199 138.244 42.7499C137.677 42.1724 136.873 41.8823 135.834 41.8823H134.43V48.335H135.834Z" fill="white"/>
<path d="M130.998 40.2311V41.8123H128.36V50H126.377V41.8123H123.739V40.2311H130.998Z" fill="white"/>
<path d="M119.741 48.4462H123.003V50H117.757V40.2311H119.741V48.4462Z" fill="white"/>
<path d="M112.931 40.2311V41.8123H110.295V50H108.31V41.8123H105.672V40.2311H112.931Z" fill="white"/>
<path d="M104.236 50H102.251L97.7571 43.2961V50H95.7733V40.2173H97.7571L102.251 46.935V40.2173H104.236V50Z" fill="white"/>
<path d="M90.2118 41.8124V44.2624H93.5444V45.8149H90.2118V48.405H93.9694V50H88.228V40.2173H93.9694V41.8124H90.2118Z" fill="white"/>
<path d="M86.2653 40.2311V50H84.2802V43.6461L81.6302 50H80.1264L77.4613 43.6461V50H75.4775V40.2311H77.7313L80.8789 47.495L84.0252 40.2311H86.2653Z" fill="white"/>
<path d="M73.5165 50H71.5314L67.0376 43.2961V50H65.0525V40.2173H67.0376L71.5314 46.935V40.2173H73.5165V50Z" fill="white"/>
<path d="M63.0922 40.2311V50H61.1071V40.2311H63.0922Z" fill="white"/>
<path d="M57.0265 48.1387H53.0852L52.4327 50H50.3489L53.9077 40.2173H56.2177L59.7766 50H57.6778L57.0265 48.1387ZM56.4878 46.5712L55.0552 42.4849L53.6239 46.5712H56.4878Z" fill="white"/>
<path d="M49.5107 40.2311V41.8123H46.8744V50H44.8893V41.8123H42.253V40.2311H49.5107Z" fill="white"/>
<path d="M38.7996 50L36.617 46.1937H35.6808V50H33.6957V40.2311H37.4108C38.1758 40.2311 38.8283 40.3661 39.3671 40.6373C39.9058 40.8986 40.3071 41.2573 40.5721 41.7148C40.8459 42.1624 40.9834 42.6661 40.9834 43.2261C40.9834 43.8699 40.7934 44.4537 40.4159 44.9762C40.0384 45.4887 39.4758 45.8437 38.7283 46.0387L41.0959 50H38.7996ZM35.6808 44.7237H37.3396C37.8783 44.7237 38.2796 44.5974 38.5446 44.3462C38.8096 44.0849 38.9421 43.7249 38.9421 43.2686C38.9421 42.8199 38.8096 42.4749 38.5446 42.2324C38.2796 41.9811 37.8783 41.8548 37.3396 41.8548H35.6808V44.7237Z" fill="white"/>
<path d="M28.1354 41.8124V44.2624H31.4667V45.8149H28.1354V48.405H31.893V50H26.1516V40.2173H31.893V41.8124H28.1354Z" fill="white"/>
<path d="M24.7031 40.2311V41.8123H22.0668V50H20.0817V41.8123H17.4454V40.2311H24.7031Z" fill="white"/>
<path d="M16.008 50H14.0242L9.53035 43.2961V50H7.54531V40.2173H9.53035L14.0242 46.935V40.2173H16.008V50Z" fill="white"/>
<path d="M1.98504 41.8123V44.2624H5.31636V45.8149H1.98504V48.405H5.74138V50H0V40.2173H5.74138V41.8123H1.98504Z" fill="white"/>
<defs>
<linearGradient id="paint0_linear_4005_927" x1="-0.000748051" y1="19.2563" x2="143.501" y2="19.2563" gradientUnits="userSpaceOnUse">
<stop stop-color="#5C2EC7"/>
<stop offset="1" stop-color="#51A2FF"/>
</linearGradient>
<linearGradient id="paint1_linear_4005_927" x1="-0.000748051" y1="19.2563" x2="143.501" y2="19.2563" gradientUnits="userSpaceOnUse">
<stop stop-color="#5C2EC7"/>
<stop offset="1" stop-color="#51A2FF"/>
</linearGradient>
<linearGradient id="paint2_linear_4005_927" x1="-0.000748051" y1="19.2563" x2="143.501" y2="19.2563" gradientUnits="userSpaceOnUse">
<stop stop-color="#5C2EC7"/>
<stop offset="1" stop-color="#51A2FF"/>
</linearGradient>
<linearGradient id="paint3_linear_4005_927" x1="-0.000748051" y1="19.2563" x2="143.501" y2="19.2563" gradientUnits="userSpaceOnUse">
<stop stop-color="#5C2EC7"/>
<stop offset="1" stop-color="#51A2FF"/>
</linearGradient>
<linearGradient id="paint4_linear_4005_927" x1="-0.000748051" y1="19.2563" x2="143.501" y2="19.2563" gradientUnits="userSpaceOnUse">
<stop stop-color="#5C2EC7"/>
<stop offset="1" stop-color="#51A2FF"/>
</linearGradient>
<linearGradient id="paint5_linear_4005_927" x1="-0.000748051" y1="19.2563" x2="143.501" y2="19.2563" gradientUnits="userSpaceOnUse">
<stop stop-color="#5C2EC7"/>
<stop offset="1" stop-color="#51A2FF"/>
</linearGradient>
<linearGradient id="paint6_linear_4005_927" x1="-0.000748051" y1="19.2563" x2="143.501" y2="19.2563" gradientUnits="userSpaceOnUse">
<stop stop-color="#5C2EC7"/>
<stop offset="1" stop-color="#51A2FF"/>
</linearGradient>
</defs>
</svg>
