<svg width="192" height="156" viewBox="0 0 192 156" fill="none" xmlns="http://www.w3.org/2000/svg">
<path d="M41.7311 93.5313C36.7808 91.6964 32.3683 89.1148 28.4907 85.7895C24.6132 82.4614 21.529 78.2186 19.2372 73.0556C16.9453 67.8953 15.7993 62.1825 15.7993 55.92C15.7993 48.6314 17.5673 41.9278 21.1023 35.812C24.6392 29.6962 29.5275 24.8424 35.77 21.2459C42.0125 17.6504 48.9113 15.8507 56.4719 15.8507C64.4204 15.8507 71.5885 17.5148 77.9782 20.8401C84.367 24.1692 89.4024 28.9496 93.0846 35.1889C96.7659 41.4282 98.6079 48.5813 98.6079 56.6555V140.149L103.875 145.433V56.6555C103.875 47.6517 101.801 39.6286 97.6573 32.5832C93.5114 25.5389 87.8418 20.1084 80.6478 16.2918C73.4546 12.4752 65.396 10.5679 56.4719 10.5679C50.0832 10.5679 44.0359 11.7667 38.3303 14.1635C32.6237 16.562 27.7465 19.7908 23.6997 23.8516C19.6518 27.9114 16.4454 32.7309 14.0804 38.3081C11.7135 43.8862 10.5324 49.7569 10.5324 55.92C10.5324 64.5792 12.654 72.4083 16.8971 79.4035C21.1394 86.4005 26.7959 91.805 33.8678 95.6216C40.9388 99.4381 48.6938 101.346 57.13 101.346C62.4941 101.346 67.9563 100.293 73.5157 98.191V92.8339C68.2007 95.1331 62.7876 96.2827 57.2763 96.2827C51.8632 96.2827 46.6814 95.3662 41.7311 93.5313Z" fill="#02EA2C"/>
<path d="M41.7315 104.354C36.6849 102.839 31.9781 100.611 27.6137 97.6762C23.2484 94.7418 19.3958 91.2549 16.0561 87.2183C12.7146 83.1835 10.0821 78.4615 8.15673 73.0552C6.2277 67.6507 5.26689 61.9388 5.26689 55.9196C5.26689 46.7729 7.5088 38.3198 11.9954 30.5659C16.4829 22.8102 22.6504 16.6592 30.5035 12.1071C38.3557 7.55884 47.0104 5.28376 56.4723 5.28376C66.3221 5.28376 75.2471 7.42419 83.2446 11.7051C91.2431 15.9859 97.5578 22.0516 102.192 29.9048C106.825 37.758 109.141 46.6726 109.141 56.6551V150.715L114.408 156V56.6551C114.408 48.2865 112.921 40.5568 109.946 33.4623C106.972 26.3705 102.899 20.3903 97.729 15.5216C92.5602 10.653 86.4149 6.85031 79.2958 4.11093C72.1758 1.36969 64.567 0 56.4723 0C48.522 0 41.0253 1.47927 33.9784 4.43966C26.9306 7.40098 20.9315 11.3875 15.983 16.4001C11.0327 21.4164 7.13206 27.3613 4.27923 34.2358C1.42549 41.1093 0 48.3366 0 55.9196C0 62.5229 1.02284 68.7882 3.07128 74.7081C5.11972 80.6261 7.94755 85.8012 11.5575 90.2288C15.1648 94.6564 19.3477 98.4971 24.1027 101.748C28.8577 105.004 34.0265 107.461 39.6118 109.125C45.1943 110.787 50.937 111.619 56.838 111.619C62.5427 111.619 68.103 110.666 73.5161 108.757V103.328C68.3464 105.529 62.8852 106.629 57.1305 106.629C51.9117 106.629 46.78 105.871 41.7315 104.354Z" fill="#02EA2C"/>
<path d="M45.9757 84.357C42.2935 83.1099 38.964 81.287 35.9899 78.8884C33.014 76.4917 30.661 73.314 28.931 69.3498C27.1991 65.3865 26.3336 60.9088 26.3336 55.9194C26.3336 47.7013 29.2115 40.7274 34.9662 35.0063C40.719 29.2815 47.8881 26.4176 56.4725 26.4176C65.7381 26.4176 73.3219 29.1459 79.2228 34.6005C85.1229 40.057 88.0738 47.4078 88.0738 56.6549V129.579L93.3397 134.864V56.6549C93.3397 49.5594 91.731 43.2969 88.5134 37.8664C85.2941 32.4359 80.9047 28.2906 75.3453 25.4268C69.785 22.5658 63.4944 21.1339 56.4725 21.1339C46.4756 21.1339 38.0735 24.5242 31.2719 31.2984C24.4675 38.0753 21.0667 46.2814 21.0667 55.9194C21.0667 61.5969 22.0655 66.7182 24.0668 71.2934C26.0652 75.8686 28.7718 79.5877 32.1865 82.4487C35.5993 85.3097 39.4768 87.4883 43.8171 88.9787C48.1574 90.4728 52.7412 91.2194 57.5693 91.2194C62.9334 91.2194 68.2503 90.1171 73.5162 87.9145V82.3401C68.4928 84.9337 63.2028 86.2272 57.6434 86.2272C53.5456 86.2272 49.657 85.6032 45.9757 84.357Z" fill="#02EA2C"/>
<path d="M51.8263 75.5867C49.8028 75.1484 47.8645 74.425 46.0123 73.4231C44.1583 72.4202 42.5606 71.147 41.2194 69.6065C39.8781 68.0659 38.8164 66.1344 38.037 63.8083C37.2576 61.4858 36.868 58.857 36.868 55.9198C36.868 50.7363 38.7933 46.2818 42.6458 42.5627C46.4983 38.8455 51.107 36.9874 56.4721 36.9874C62.8118 36.9874 67.9074 38.6988 71.7599 42.1244C75.6134 45.5501 77.5405 50.3918 77.5405 56.6552V119.013L82.8065 124.297V56.6552C82.8065 48.8754 80.3795 42.7707 75.5282 38.3432C70.6751 33.9184 64.3233 31.7018 56.4721 31.7018C49.3511 31.7018 43.4252 34.0502 38.6961 38.749C33.9642 43.4449 31.6011 49.1688 31.6011 55.9198C31.6011 60.274 32.3434 64.1286 33.8309 67.4772C35.3184 70.8295 37.3308 73.4723 39.8661 75.4047C42.4014 77.3362 45.2172 78.7802 48.3153 79.7329C51.4116 80.6875 54.7161 81.1648 58.2271 81.1648C63.6893 81.1648 68.7858 79.9177 73.5158 77.4216V72.1379C68.9321 74.8782 63.8605 76.2479 58.3002 76.2479C56.0074 76.2479 53.8497 76.0278 51.8263 75.5867Z" fill="#02EA2C"/>
<path d="M120.24 42.1244C124.092 38.6988 129.188 36.9874 135.528 36.9874C140.893 36.9874 145.502 38.8455 149.354 42.5627C153.207 46.2818 155.132 50.7363 155.132 55.9198C155.132 58.857 154.742 61.4858 153.963 63.8083C153.183 66.1344 152.122 68.0659 150.78 69.6065C149.439 71.147 147.842 72.4202 145.988 73.4231C144.135 74.425 142.197 75.1484 140.174 75.5867C138.15 76.0278 135.992 76.2488 133.7 76.2488C128.307 76.2488 123.384 74.932 118.91 72.3552V77.6148C123.522 79.966 128.472 81.1648 133.773 81.1648C137.284 81.1648 140.588 80.6875 143.685 79.7329C146.783 78.7802 149.598 77.3362 152.134 75.4047C154.669 73.4723 156.681 70.8295 158.169 67.4772C159.656 64.1286 160.399 60.274 160.399 55.9198C160.399 49.1688 158.036 43.4449 153.304 38.749C148.575 34.0502 142.649 31.7018 135.528 31.7018C127.677 31.7018 121.325 33.9184 116.472 38.3432C116.448 38.3654 116.428 38.3905 116.404 38.4128C116.997 40.4873 117.476 42.611 117.856 44.7765C118.548 43.8164 119.336 42.9277 120.24 42.1244Z" fill="#02EA2C"/>
<path d="M148.183 88.9787C152.524 87.4883 156.401 85.3097 159.814 82.4487C163.229 79.5877 165.935 75.8686 167.934 71.2934C169.935 66.7182 170.934 61.5969 170.934 55.9194C170.934 46.2814 167.533 38.0753 160.729 31.2984C153.927 24.5242 145.525 21.1339 135.528 21.1339C128.506 21.1339 122.215 22.5658 116.655 25.4268C115.132 26.2115 113.715 27.1132 112.368 28.091C112.96 29.2833 113.571 30.458 114.097 31.7098C114.284 32.1573 114.413 32.6319 114.59 33.0841C120.207 28.6547 127.178 26.4176 135.528 26.4176C144.113 26.4176 151.282 29.2815 157.034 35.0063C162.789 40.7274 165.667 47.7013 165.667 55.9194C165.667 60.9088 164.802 65.3865 163.07 69.3498C161.34 73.314 158.987 76.4917 156.011 78.8884C153.038 81.287 149.707 83.1099 146.025 84.357C142.344 85.6032 138.455 86.2272 134.357 86.2272C128.953 86.2272 123.809 84.9801 118.91 82.5295V88.0705C124.038 90.1552 129.212 91.2194 134.431 91.2194C139.259 91.2194 143.843 90.4728 148.183 88.9787Z" fill="#02EA2C"/>
<path d="M158.132 95.6216C165.204 91.805 170.86 86.4005 175.103 79.4035C179.345 72.4083 181.467 64.5792 181.467 55.92C181.467 49.7569 180.286 43.8862 177.919 38.3081C175.554 32.7309 172.348 27.9114 168.3 23.8516C164.253 19.7908 159.376 16.563 153.669 14.1635C147.964 11.7667 141.917 10.5679 135.528 10.5679C126.604 10.5679 118.545 12.4752 111.352 16.2918C109.762 17.1359 108.275 18.0896 106.834 19.0906C107.875 20.4789 108.856 21.9247 109.78 23.4281C111.125 22.4921 112.528 21.6183 114.021 20.8401C120.411 17.5148 127.579 15.8507 135.528 15.8507C143.088 15.8507 149.987 17.6504 156.23 21.2459C162.472 24.8424 167.36 29.6962 170.897 35.812C174.432 41.9278 176.2 48.6314 176.2 55.92C176.2 62.1825 175.054 67.8953 172.762 73.0556C170.471 78.2186 167.386 82.4614 163.509 85.7895C159.631 89.1148 155.219 91.6964 150.269 93.5313C145.318 95.3662 140.136 96.2827 134.723 96.2827C129.359 96.2827 124.089 95.1731 118.91 92.9945V98.3331C124.323 100.329 129.643 101.346 134.87 101.346C143.306 101.346 151.061 99.4381 158.132 95.6216Z" fill="#02EA2C"/>
<path d="M187.721 34.2358C184.868 27.3613 180.967 21.4164 176.017 16.4001C171.069 11.3875 165.069 7.40098 158.022 4.43966C150.975 1.47927 143.478 0 135.528 0C127.433 0 119.824 1.36969 112.704 4.11093C107.874 5.97 103.529 8.35837 99.5962 11.1962C99.9924 11.5491 100.426 11.8657 100.811 12.2279C101.74 13.1035 102.59 14.0665 103.456 15.0109C105.138 13.8186 106.891 12.7033 108.754 11.7051C116.753 7.42419 125.678 5.28376 135.528 5.28376C144.99 5.28376 153.644 7.55884 161.496 12.1081C169.35 16.6592 175.517 22.8102 180.004 30.5659C184.491 38.3198 186.733 46.7729 186.733 55.9196C186.733 61.9388 185.772 67.6507 183.843 73.0552C181.918 78.4615 179.285 83.1835 175.944 87.2183C172.604 91.2549 168.752 94.7418 164.386 97.6762C160.022 100.611 155.315 102.839 150.268 104.354C145.22 105.871 140.088 106.629 134.87 106.629C129.271 106.629 123.955 105.568 118.91 103.484V108.889C124.19 110.698 129.605 111.619 135.162 111.619C141.063 111.619 146.806 110.787 152.388 109.125C157.974 107.461 163.142 105.004 167.897 101.748C172.652 98.4971 176.835 94.6564 180.443 90.2288C184.052 85.8012 186.88 80.6261 188.929 74.7081C190.977 68.7882 192 62.5229 192 55.9196C192 48.3367 190.575 41.1093 187.721 34.2358Z" fill="#02EA2C"/>
<path d="M57.2046 65.9384C51.972 65.9384 47.7307 61.6826 47.7307 56.4323C47.7307 51.1829 51.972 46.9271 57.2046 46.9271C62.4382 46.9271 66.6803 51.1829 66.6803 56.4323C66.6803 61.6826 62.4382 65.9384 57.2046 65.9384ZM57.2046 42.2145C49.3774 42.2145 43.0321 48.58 43.0321 56.4323C43.0321 64.2855 49.3774 70.6511 57.2046 70.6511C65.0327 70.6511 71.378 64.2855 71.378 56.4323C71.378 48.58 65.0327 42.2145 57.2046 42.2145Z" fill="#02EA2C"/>
<path d="M134.797 65.9384C129.563 65.9384 125.321 61.6826 125.321 56.4323C125.321 51.1829 129.563 46.9271 134.797 46.9271C140.029 46.9271 144.271 51.1829 144.271 56.4323C144.271 61.6826 140.029 65.9384 134.797 65.9384ZM134.797 42.2145C126.969 42.2145 120.623 48.58 120.623 56.4323C120.623 64.2855 126.969 70.6511 134.797 70.6511C142.624 70.6511 148.969 64.2855 148.969 56.4323C148.969 48.58 142.624 42.2145 134.797 42.2145Z" fill="#02EA2C"/>
</svg>
