<svg width="332" height="238" viewBox="0 0 332 238" fill="none" xmlns="http://www.w3.org/2000/svg">
<g filter="url(#filter0_d_2001_102)">
<path d="M217.489 130.519C217.867 131.177 218.74 131.345 219.287 130.821C222.404 127.835 224.347 123.62 224.347 118.948C224.347 114.286 222.412 110.078 219.306 107.093C218.759 106.568 217.884 106.735 217.506 107.394L216.852 108.534C216.557 109.047 216.669 109.694 217.08 110.119C219.286 112.4 220.644 115.515 220.644 118.948C220.644 122.39 219.279 125.511 217.065 127.794C216.653 128.218 216.54 128.866 216.835 129.38L217.489 130.519Z" fill="white"/>
<path d="M221.379 137.297C221.745 137.935 222.58 138.116 223.147 137.652C228.549 133.235 232 126.497 232 118.948C232 111.409 228.557 104.678 223.167 100.261C222.599 99.7956 221.763 99.9766 221.397 100.614L220.764 101.717C220.452 102.26 220.595 102.949 221.073 103.353C225.49 107.089 228.297 112.689 228.297 118.948C228.297 125.216 225.483 130.822 221.056 134.558C220.578 134.962 220.434 135.651 220.746 136.195L221.379 137.297Z" fill="white"/>
</g>
<g filter="url(#filter1_d_2001_102)">
<path d="M185.002 113.132C185.431 112.381 186.036 111.8 186.819 111.387C187.602 110.956 188.524 110.74 189.587 110.74C190.835 110.74 191.963 111.069 192.969 111.725C193.994 112.381 194.795 113.319 195.373 114.538C195.969 115.758 196.268 117.183 196.268 118.815C196.268 120.447 195.969 121.881 195.373 123.119C194.795 124.338 193.994 125.276 192.969 125.933C191.963 126.589 190.835 126.917 189.587 126.917C188.524 126.917 187.602 126.711 186.819 126.298C186.036 125.867 185.431 125.276 185.002 124.526V126.72H179.523V105.901H185.002V113.132ZM190.705 118.815C190.705 117.783 190.425 116.986 189.866 116.423C189.326 115.842 188.655 115.551 187.853 115.551C187.052 115.551 186.372 115.842 185.813 116.423C185.272 117.005 185.002 117.802 185.002 118.815C185.002 119.846 185.272 120.653 185.813 121.234C186.372 121.816 187.052 122.106 187.853 122.106C188.655 122.106 189.326 121.816 189.866 121.234C190.425 120.634 190.705 119.828 190.705 118.815Z" fill="white"/>
<path d="M173.607 109.474C172.637 109.474 171.855 109.212 171.258 108.687C170.681 108.143 170.392 107.467 170.392 106.661C170.392 105.836 170.681 105.151 171.258 104.607C171.855 104.063 172.637 103.791 173.607 103.791C174.557 103.791 175.321 104.063 175.899 104.607C176.495 105.151 176.793 105.836 176.793 106.661C176.793 107.467 176.495 108.143 175.899 108.687C175.321 109.212 174.557 109.474 173.607 109.474ZM176.318 110.937V126.72H170.839V110.937H176.318Z" fill="white"/>
<path d="M160.785 126.917C159.369 126.917 158.102 126.683 156.984 126.214C155.884 125.726 155.008 125.07 154.356 124.245C153.722 123.401 153.368 122.453 153.294 121.403H158.605C158.68 121.909 158.913 122.303 159.304 122.585C159.695 122.866 160.18 123.007 160.757 123.007C161.205 123.007 161.559 122.913 161.82 122.725C162.081 122.538 162.211 122.294 162.211 121.994C162.211 121.6 161.997 121.309 161.568 121.122C161.14 120.934 160.431 120.728 159.444 120.503C158.326 120.278 157.394 120.025 156.648 119.743C155.903 119.462 155.251 119.002 154.691 118.365C154.151 117.727 153.881 116.864 153.881 115.776C153.881 114.838 154.132 113.994 154.636 113.244C155.139 112.475 155.875 111.866 156.844 111.416C157.832 110.965 159.015 110.74 160.394 110.74C162.444 110.74 164.056 111.247 165.23 112.26C166.404 113.272 167.084 114.604 167.271 116.255H162.323C162.23 115.748 162.006 115.364 161.652 115.101C161.317 114.82 160.86 114.679 160.282 114.679C159.835 114.679 159.49 114.763 159.248 114.932C159.024 115.101 158.913 115.336 158.913 115.636C158.913 116.011 159.127 116.301 159.555 116.508C159.984 116.695 160.674 116.892 161.624 117.099C162.761 117.342 163.702 117.614 164.447 117.914C165.211 118.215 165.873 118.702 166.432 119.377C167.01 120.034 167.299 120.934 167.299 122.078C167.299 122.997 167.028 123.823 166.488 124.554C165.966 125.286 165.211 125.867 164.224 126.298C163.255 126.711 162.109 126.917 160.785 126.917Z" fill="white"/>
<path d="M144.353 110.797C146.161 110.797 147.596 111.406 148.658 112.625C149.72 113.826 150.251 115.457 150.251 117.521V126.72H144.772V118.252C144.772 117.352 144.539 116.648 144.074 116.142C143.608 115.617 142.983 115.354 142.201 115.354C141.381 115.354 140.738 115.617 140.272 116.142C139.806 116.648 139.573 117.352 139.573 118.252V126.72H134.094V110.937H139.573V113.188C140.057 112.475 140.71 111.903 141.53 111.472C142.35 111.022 143.291 110.797 144.353 110.797Z" fill="white"/>
<path d="M131.767 118.646C131.767 119.077 131.739 119.509 131.683 119.94H121.312C121.368 120.803 121.601 121.45 122.011 121.881C122.44 122.294 122.98 122.5 123.632 122.5C124.545 122.5 125.198 122.088 125.589 121.262H131.431C131.189 122.35 130.714 123.326 130.006 124.188C129.316 125.032 128.44 125.698 127.378 126.186C126.316 126.674 125.142 126.917 123.856 126.917C122.309 126.917 120.93 126.589 119.719 125.933C118.526 125.276 117.585 124.338 116.895 123.119C116.224 121.9 115.889 120.465 115.889 118.815C115.889 117.164 116.224 115.739 116.895 114.538C117.566 113.319 118.498 112.381 119.691 111.725C120.902 111.069 122.29 110.74 123.856 110.74C125.403 110.74 126.772 111.059 127.965 111.697C129.158 112.335 130.09 113.254 130.76 114.454C131.431 115.636 131.767 117.033 131.767 118.646ZM126.176 117.267C126.176 116.592 125.952 116.067 125.505 115.692C125.058 115.298 124.499 115.101 123.828 115.101C123.157 115.101 122.607 115.289 122.179 115.664C121.75 116.02 121.47 116.555 121.34 117.267H126.176Z" fill="white"/>
<path d="M107.492 126.917C106.075 126.917 104.808 126.683 103.69 126.214C102.59 125.726 101.715 125.07 101.062 124.245C100.429 123.401 100.075 122.453 100 121.403H105.311C105.386 121.909 105.619 122.303 106.01 122.585C106.401 122.866 106.886 123.007 107.464 123.007C107.911 123.007 108.265 122.913 108.526 122.725C108.787 122.538 108.917 122.294 108.917 121.994C108.917 121.6 108.703 121.309 108.274 121.122C107.846 120.934 107.138 120.728 106.15 120.503C105.032 120.278 104.1 120.025 103.354 119.743C102.609 119.462 101.957 119.002 101.398 118.365C100.857 117.727 100.587 116.864 100.587 115.776C100.587 114.838 100.839 113.994 101.342 113.244C101.845 112.475 102.581 111.866 103.55 111.416C104.538 110.965 105.721 110.74 107.1 110.74C109.15 110.74 110.762 111.247 111.936 112.26C113.11 113.272 113.791 114.604 113.977 116.255H109.029C108.936 115.748 108.712 115.364 108.358 115.101C108.023 114.82 107.566 114.679 106.988 114.679C106.541 114.679 106.196 114.763 105.954 114.932C105.731 115.101 105.619 115.336 105.619 115.636C105.619 116.011 105.833 116.301 106.262 116.508C106.69 116.695 107.38 116.892 108.33 117.099C109.467 117.342 110.408 117.614 111.154 117.914C111.918 118.215 112.579 118.702 113.138 119.377C113.716 120.034 114.005 120.934 114.005 122.078C114.005 122.997 113.735 123.823 113.194 124.554C112.672 125.286 111.918 125.867 110.93 126.298C109.961 126.711 108.815 126.917 107.492 126.917Z" fill="white"/>
<path fill-rule="evenodd" clip-rule="evenodd" d="M206.614 127.02C211.134 127.02 214.799 123.367 214.799 118.862C214.799 114.357 211.134 110.704 206.614 110.704C202.094 110.704 198.429 114.357 198.429 118.862C198.429 123.367 202.094 127.02 206.614 127.02ZM205.109 122.55L210.246 119.728C210.93 119.352 210.93 118.372 210.246 117.996L205.109 115.174C204.447 114.811 203.638 115.288 203.638 116.04V121.684C203.638 122.436 204.447 122.913 205.109 122.55Z" fill="white"/>
</g>
<path d="M208.721 132.185C209.553 132.185 210.283 132.346 210.91 132.667C211.545 132.988 212.033 133.447 212.373 134.044C212.721 134.633 212.895 135.32 212.895 136.104C212.895 136.887 212.721 137.574 212.373 138.164C212.033 138.746 211.545 139.198 210.91 139.519C210.283 139.84 209.553 140 208.721 140H205.954V132.185H208.721ZM208.665 138.668C209.496 138.668 210.139 138.444 210.593 137.996C211.046 137.548 211.273 136.917 211.273 136.104C211.273 135.29 211.046 134.656 210.593 134.2C210.139 133.738 209.496 133.506 208.665 133.506H207.542V138.668H208.665Z" fill="white"/>
<path d="M204.796 132.185V133.45H202.686V140H201.099V133.45H198.989V132.185H204.796Z" fill="white"/>
<path d="M195.791 138.757H198.4V140H194.204V132.185H195.791V138.757Z" fill="white"/>
<path d="M190.343 132.185V133.45H188.234V140H186.646V133.45H184.536V132.185H190.343Z" fill="white"/>
<path d="M183.387 140H181.799L178.204 134.637V140H176.617V132.174H178.204L181.799 137.548V132.174H183.387V140Z" fill="white"/>
<path d="M172.168 133.45V135.41H174.834V136.652H172.168V138.724H175.174V140H170.581V132.174H175.174V133.45H172.168Z" fill="white"/>
<path d="M169.011 132.185V140H167.423V134.917L165.303 140H164.1L161.968 134.917V140H160.381V132.185H162.184L164.702 137.996L167.219 132.185H169.011Z" fill="white"/>
<path d="M158.812 140H157.224L153.629 134.637V140H152.041V132.174H153.629L157.224 137.548V132.174H158.812V140Z" fill="white"/>
<path d="M150.473 132.185V140H148.885V132.185H150.473Z" fill="white"/>
<path d="M145.621 138.511H142.468L141.946 140H140.279L143.126 132.174H144.974L147.821 140H146.142L145.621 138.511ZM145.19 137.257L144.044 133.988L142.899 137.257H145.19Z" fill="white"/>
<path d="M139.608 132.185V133.45H137.499V140H135.911V133.45H133.802V132.185H139.608Z" fill="white"/>
<path d="M131.039 140L129.293 136.955H128.544V140H126.956V132.185H129.928C130.54 132.185 131.062 132.293 131.493 132.51C131.924 132.719 132.245 133.006 132.457 133.372C132.676 133.73 132.786 134.133 132.786 134.581C132.786 135.096 132.634 135.563 132.332 135.981C132.03 136.391 131.58 136.675 130.982 136.832L132.876 140H131.039ZM128.544 135.779H129.871C130.302 135.779 130.623 135.678 130.835 135.477C131.047 135.268 131.153 134.98 131.153 134.615C131.153 134.256 131.047 133.98 130.835 133.786C130.623 133.585 130.302 133.484 129.871 133.484H128.544V135.779Z" fill="white"/>
<path d="M122.508 133.45V135.41H125.173V136.652H122.508V138.724H125.514V140H120.921V132.174H125.514V133.45H122.508Z" fill="white"/>
<path d="M119.762 132.185V133.45H117.653V140H116.065V133.45H113.956V132.185H119.762Z" fill="white"/>
<path d="M112.806 140H111.219L107.624 134.637V140H106.036V132.174H107.624L111.219 137.548V132.174H112.806V140Z" fill="white"/>
<path d="M101.588 133.45V135.41H104.253V136.652H101.588V138.724H104.593V140H100V132.174H104.593V133.45H101.588Z" fill="white"/>
<defs>
<filter id="filter0_d_2001_102" x="116.67" y="0" width="215.33" height="237.912" filterUnits="userSpaceOnUse" color-interpolation-filters="sRGB">
<feFlood flood-opacity="0" result="BackgroundImageFix"/>
<feColorMatrix in="SourceAlpha" type="matrix" values="0 0 0 0 0 0 0 0 0 0 0 0 0 0 0 0 0 0 127 0" result="hardAlpha"/>
<feOffset/>
<feGaussianBlur stdDeviation="50"/>
<feComposite in2="hardAlpha" operator="out"/>
<feColorMatrix type="matrix" values="0 0 0 0 0.677708 0 0 0 0 1 0 0 0 0 0.504167 0 0 0 1 0"/>
<feBlend mode="normal" in2="BackgroundImageFix" result="effect1_dropShadow_2001_102"/>
<feBlend mode="normal" in="SourceGraphic" in2="effect1_dropShadow_2001_102" result="shape"/>
</filter>
<filter id="filter1_d_2001_102" x="0" y="3.7912" width="314.799" height="223.228" filterUnits="userSpaceOnUse" color-interpolation-filters="sRGB">
<feFlood flood-opacity="0" result="BackgroundImageFix"/>
<feColorMatrix in="SourceAlpha" type="matrix" values="0 0 0 0 0 0 0 0 0 0 0 0 0 0 0 0 0 0 127 0" result="hardAlpha"/>
<feOffset/>
<feGaussianBlur stdDeviation="50"/>
<feComposite in2="hardAlpha" operator="out"/>
<feColorMatrix type="matrix" values="0 0 0 0 0.677708 0 0 0 0 1 0 0 0 0 0.504167 0 0 0 1 0"/>
<feBlend mode="normal" in2="BackgroundImageFix" result="effect1_dropShadow_2001_102"/>
<feBlend mode="normal" in="SourceGraphic" in2="effect1_dropShadow_2001_102" result="shape"/>
</filter>
</defs>
</svg>
