<svg width="70" height="70" viewBox="0 0 70 70" fill="none" xmlns="http://www.w3.org/2000/svg">
<path d="M18.1656 21.0313C20.2169 18.5558 22.7894 16.5636 25.6993 15.197C28.6093 13.8303 31.7851 13.1228 35 13.125C41.7687 13.125 47.8188 16.2 51.8344 21.0313C49.8312 22.2281 47.6906 23.2188 45.4406 23.975C45.0529 24.1108 44.7342 24.3938 44.5535 24.7628C44.3729 25.1318 44.3449 25.5571 44.4755 25.9467C44.6062 26.3362 44.885 26.6586 45.2517 26.844C45.6183 27.0295 46.0432 27.063 46.4344 26.9375C48.9813 26.0812 51.4031 24.95 53.6594 23.5781C55.7676 27.0145 56.8808 30.9685 56.875 35C56.875 39.2 55.6906 43.125 53.6406 46.4563C51.3698 45.0766 48.9529 43.9531 46.4344 43.1062C46.0432 42.9807 45.6183 43.0143 45.2517 43.1997C44.885 43.3852 44.6062 43.7076 44.4755 44.0971C44.3449 44.4866 44.3729 44.9119 44.5535 45.2809C44.7342 45.65 45.0529 45.933 45.4406 46.0687C47.6813 46.8187 49.8156 47.8062 51.8094 49C49.7578 51.4665 47.188 53.4508 44.2828 54.8119C41.3776 56.1729 38.2082 56.8773 35 56.875C31.7918 56.8773 28.6224 56.1729 25.7172 54.8119C22.812 53.4508 20.2422 51.4665 18.1906 49C20.2028 47.7983 22.3379 46.8156 24.5594 46.0687C24.7564 46.0055 24.9389 45.9038 25.0963 45.7695C25.2537 45.6351 25.3828 45.4709 25.4762 45.2863C25.5696 45.1016 25.6254 44.9003 25.6403 44.6939C25.6553 44.4875 25.6291 44.2802 25.5633 44.0841C25.4975 43.8879 25.3934 43.7067 25.257 43.5511C25.1206 43.3955 24.9547 43.2686 24.7689 43.1776C24.583 43.0866 24.3809 43.0335 24.1744 43.0212C23.9678 43.009 23.7609 43.0379 23.5656 43.1062C21.025 43.9594 18.6125 45.0875 16.3594 46.4563C14.2384 43.0119 13.1184 39.045 13.125 35C13.125 30.8125 14.3 26.9031 16.3406 23.5781C18.5969 24.9531 21.0188 26.0812 23.5656 26.9375C23.9568 27.063 24.3817 27.0295 24.7483 26.844C25.115 26.6586 25.3938 26.3362 25.5245 25.9467C25.6551 25.5571 25.6271 25.1318 25.4465 24.7628C25.2658 24.3938 24.9471 24.1108 24.5594 23.975C22.3286 23.2249 20.185 22.2369 18.1656 21.0281M35 10C28.3696 10 22.0107 12.6339 17.3223 17.3223C12.6339 22.0107 10 28.3696 10 35C10 41.6304 12.6339 47.9893 17.3223 52.6777C22.0107 57.3661 28.3696 60 35 60C41.6304 60 47.9893 57.3661 52.6777 52.6777C57.3661 47.9893 60 41.6304 60 35C60 28.3696 57.3661 22.0107 52.6777 17.3223C47.9893 12.6339 41.6304 10 35 10ZM30.5219 25.3656C33.4925 25.7708 36.5044 25.7708 39.475 25.3656C39.8857 25.3097 40.3017 25.4192 40.6317 25.67C40.9616 25.9208 41.1784 26.2925 41.2344 26.7031C41.2903 27.1138 41.1808 27.5299 40.93 27.8598C40.6792 28.1898 40.3075 28.4066 39.8969 28.4625C36.6463 28.9058 33.3506 28.9058 30.1 28.4625C29.7029 28.3917 29.3486 28.1701 29.1112 27.844C28.8738 27.518 28.7716 27.1128 28.8261 26.7132C28.8806 26.3135 29.0875 25.9504 29.4036 25.6999C29.7196 25.4493 30.1203 25.3307 30.5219 25.3688M30.5219 44.6812C33.4925 44.2761 36.5044 44.2761 39.475 44.6812C39.8857 44.7372 40.3017 44.6277 40.6317 44.3769C40.9616 44.126 41.1784 43.7544 41.2344 43.3438C41.2903 42.9331 41.1808 42.517 40.93 42.1871C40.6792 41.8571 40.3075 41.6403 39.8969 41.5844C36.6463 41.1411 33.3506 41.1411 30.1 41.5844C29.8904 41.6043 29.6869 41.6663 29.5019 41.7668C29.3168 41.8673 29.154 42.0042 29.0232 42.1692C28.8924 42.3342 28.7962 42.5239 28.7406 42.727C28.685 42.9301 28.671 43.1424 28.6994 43.351C28.7279 43.5596 28.7982 43.7604 28.9062 43.9412C29.0142 44.1219 29.1576 44.279 29.3278 44.403C29.498 44.5269 29.6915 44.6152 29.8967 44.6625C30.1019 44.7098 30.3146 44.7182 30.5219 44.6812Z" fill="white"/>
</svg>
