<svg width="70" height="70" viewBox="0 0 70 70" fill="none" xmlns="http://www.w3.org/2000/svg">
<path fill-rule="evenodd" clip-rule="evenodd" d="M12.9532 10.5571C13.6904 11.2976 13.6877 12.4955 12.9472 13.2327C10.0383 16.1285 7.73111 19.5712 6.15845 23.3626C4.58578 27.1539 3.77874 31.2189 3.78381 35.3235V35.3283C3.77832 39.4805 4.60392 43.5919 6.21197 47.4201C7.82002 51.2483 10.178 54.716 13.147 57.6188C13.8941 58.3493 13.9076 59.5471 13.1771 60.2942C12.4466 61.0413 11.2488 61.0548 10.5017 60.3243C7.17174 57.0685 4.52704 53.1792 2.72345 48.8855C0.920182 44.5925 -0.00580262 39.982 2.73585e-05 35.3257C-0.00534164 30.7229 0.899824 26.1644 2.66342 21.9128C4.42732 17.6604 7.0151 13.7991 10.2777 10.5511C11.0182 9.81395 12.2161 9.81664 12.9532 10.5571ZM57.3164 10.8008C58.0617 10.0684 59.2595 10.0788 59.9919 10.8241C66.4154 17.3605 70.0102 26.1613 70 35.3257C70.0053 39.917 69.1048 44.4641 67.3498 48.7068C65.5946 52.9501 63.0192 56.8053 59.7713 60.0515C59.0323 60.7901 57.8344 60.7898 57.0958 60.0508C56.3571 59.3117 56.3575 58.1139 57.0965 57.3752C59.9923 54.481 62.2884 51.0437 63.8533 47.2605C65.4183 43.4772 66.2212 39.4223 66.2162 35.3281V35.3235C66.2259 27.152 63.0208 19.3045 57.2931 13.4762C56.5608 12.731 56.5712 11.5331 57.3164 10.8008ZM22.3509 20.7906C23.0644 21.5539 23.024 22.7511 22.2608 23.4646C19.0079 26.5054 17.027 30.6815 17.027 35.2662C17.027 39.906 19.0576 44.1249 22.3754 47.1766C23.1444 47.884 23.1944 49.0808 22.487 49.8498C21.7797 50.6188 20.5828 50.6688 19.8138 49.9614C15.7816 46.2525 13.2433 41.0488 13.2433 35.2662C13.2433 29.5543 15.7187 24.4006 19.6768 20.7005C20.4401 19.987 21.6373 20.0273 22.3509 20.7906ZM47.8204 20.9198C48.543 20.1651 49.7406 20.1391 50.4953 20.8618C54.3472 24.5502 56.7567 29.6343 56.7567 35.2662C56.7567 40.967 54.2923 46.1062 50.3561 49.8025C49.5944 50.5177 48.3971 50.4801 47.6819 49.7184C46.9666 48.9568 47.0042 47.7595 47.7659 47.0442C51.0009 44.0064 52.973 39.8421 52.973 35.2662C52.973 30.7471 51.0454 26.6272 47.8784 23.5947C47.1237 22.8721 47.0977 21.6745 47.8204 20.9198ZM31.2493 27.3263C31.2469 27.3287 31.245 27.3307 31.2433 27.3319L31.2361 27.3367C31.1483 27.3959 30.9529 27.5359 30.7761 28.3558C30.5866 29.2348 30.502 30.4738 30.379 32.4097L30.3788 32.4132C30.311 33.4499 30.2702 34.446 30.2702 35.3257C30.2702 36.2024 30.3139 37.1972 30.3791 38.2426C30.5038 40.1782 30.5882 41.4167 30.7775 42.2968C30.9542 43.118 31.1495 43.2595 31.2388 43.3198C31.2408 43.3212 31.2429 43.3233 31.2456 43.3259C31.2729 43.3526 31.3529 43.4307 31.866 43.2644C32.5601 43.0393 33.484 42.5418 35.0342 41.6921L35.0439 41.6868C35.7395 41.3108 36.423 40.9132 37.0937 40.4944C37.8653 39.9994 38.6203 39.4788 39.3572 38.9334L39.3628 38.9293C40.9028 37.7984 41.8518 37.0929 42.4512 36.4647C42.9676 35.9236 43.0405 35.6302 43.0405 35.3257C43.0405 35.0217 42.968 34.7292 42.4516 34.1884C41.8518 33.5601 40.9031 32.855 39.3631 31.7223C38.5653 31.1378 37.7924 30.5991 37.0939 30.1572L37.0919 30.1559C36.4866 29.7718 35.784 29.3665 35.0348 28.9582L35.0316 28.9564C33.4832 28.1085 32.5595 27.6118 31.8658 27.3876C31.3521 27.2215 31.2744 27.3008 31.2493 27.3263ZM36.8477 25.6369C36.7984 25.61 36.7493 25.583 36.7003 25.5562C35.3496 24.8163 34.1068 24.1354 33.0297 23.7872C31.7833 23.3843 30.4222 23.3163 29.1192 24.2005C27.8819 25.0353 27.353 26.2796 27.0773 27.5584C26.8198 28.7526 26.7225 30.2859 26.6104 32.0513L26.6031 32.1662C26.603 32.1669 26.603 32.1675 26.6029 32.1682C26.5318 33.2564 26.4865 34.3388 26.4865 35.3257C26.4865 36.3159 26.5354 37.3997 26.6027 38.4794L26.6127 38.6351C26.7253 40.3854 26.8232 41.9066 27.0784 43.0926C27.3536 44.3722 27.8817 45.6179 29.1201 46.4548C30.425 47.3367 31.7853 47.2682 33.0328 46.8637C34.1085 46.515 35.3497 45.8344 36.7002 45.0938C36.7494 45.0669 36.7987 45.0398 36.8482 45.0127C37.6151 44.5981 38.3687 44.1594 39.1081 43.6974L39.1173 43.6916L39.1265 43.6858C39.9715 43.1441 40.7982 42.5742 41.6051 41.9771C41.6061 41.9764 41.6071 41.9756 41.6081 41.9749L41.7271 41.8875C43.1032 40.8772 44.3307 39.976 45.1887 39.0768C46.1556 38.0635 46.8243 36.8819 46.8243 35.3257C46.8243 33.769 46.1552 32.5882 45.1884 31.5755C44.3345 30.6812 43.1138 29.7837 41.7456 28.7776C41.6984 28.7429 41.6511 28.7081 41.6036 28.6732L41.6009 28.6712C40.764 28.0579 39.9155 27.4649 39.1181 26.9603C39.1184 26.9605 39.1188 26.9608 39.1191 26.961L38.1055 28.5584L39.1171 26.9597C39.1174 26.9599 39.1178 26.9601 39.1181 26.9603C38.4198 26.5173 37.6403 26.069 36.8477 25.6369Z" fill="white"/>
</svg>
